<svg width="964" height="198" viewBox="0 0 963.841 197.829" fill="none" xmlns="http://www.w3.org/2000/svg">
<g id="WaveLines" opacity="0.07" clip-path="url(#clip0_548_3)">
<path id="Vector" d="M0 49.4572C160.64 32.9715 321.28 32.9715 481.921 49.4572C642.561 65.9429 803.201 65.9429 963.841 49.4572" stroke="white" stroke-width="1.36458"/>
<path id="Vector_2" d="M0 74.1858C160.64 53.5786 321.28 53.5786 481.921 74.1858C642.561 94.7929 803.201 94.7929 963.841 74.1858" stroke="white" stroke-width="1.36458"/>
<path id="Vector_3" d="M0 98.9144C160.64 78.3072 321.28 78.3072 481.921 98.9144C642.561 119.522 803.201 119.522 963.841 98.9144" stroke="white" stroke-width="1.36458"/>
<path id="Vector_4" d="M0 123.643C160.64 103.036 321.28 103.036 481.921 123.643C642.561 144.25 803.201 144.25 963.841 123.643" stroke="white" stroke-width="1.36458"/>
<path id="Vector_5" d="M0 148.372C160.64 127.764 321.28 127.764 481.921 148.372C642.561 168.979 803.201 168.979 963.841 148.372" stroke="white" stroke-width="1.36458"/>
</g>
<defs>
<clipPath id="clip0_548_3">
<rect width="963.841" height="197.829" fill="white"/>
</clipPath>
</defs>
</svg>
