<svg width="15" height="12" viewBox="0 0 14.7588 12.212" fill="none" xmlns="http://www.w3.org/2000/svg">
<path id="Vector" d="M14.7577 6.38579C14.7823 5.85083 14.4011 5.70017 14.2473 5.70017H8.70091C8.2182 5.70017 8.14134 6.20747 8.14134 6.25974V12.212H14.7577V6.38579ZM10.9392 10.6594C10.9392 10.7946 10.8869 10.9237 10.7916 11.0191C10.6963 11.1144 10.5672 11.1667 10.4319 11.1667H9.92457C9.78928 11.1667 9.66018 11.1144 9.56485 11.0191C9.46953 10.9237 9.41727 10.7946 9.41727 10.6594V10.1491C9.41727 9.86927 9.64479 9.63865 9.92767 9.63865H10.435C10.5702 9.63865 10.6994 9.69091 10.7947 9.78623C10.8899 9.88156 10.9423 10.0107 10.9423 10.146V10.6563H10.9392V10.6594ZM10.9392 8.06448C10.9392 8.19977 10.8869 8.32887 10.7916 8.4242C10.6963 8.51952 10.5672 8.57178 10.4319 8.57178H9.92457C9.78928 8.57178 9.66018 8.51952 9.56485 8.4242C9.46953 8.32887 9.41727 8.19977 9.41727 8.06448V7.55411C9.41727 7.27433 9.64479 7.04374 9.92767 7.04374H10.435C10.5702 7.04374 10.6994 7.096 10.7947 7.19131C10.8899 7.28663 10.9423 7.41575 10.9423 7.55103V8.0614H10.9392V8.06448ZM13.4849 10.6594C13.4849 10.7946 13.4326 10.9237 13.3373 11.0191C13.242 11.1144 13.1129 11.1667 12.9776 11.1667H12.4703C12.335 11.1667 12.2059 11.1144 12.1106 11.0191C12.0152 10.9237 11.963 10.7946 11.963 10.6594V10.1491C11.963 9.86927 12.1905 9.63865 12.4734 9.63865H12.9807C13.1159 9.63865 13.2451 9.69091 13.3404 9.78623C13.4356 9.88156 13.4879 10.0107 13.4879 10.146V10.6563H13.4849V10.6594ZM13.4849 8.06448C13.4849 8.19977 13.4326 8.32887 13.3373 8.4242C13.242 8.51952 13.1129 8.57178 12.9776 8.57178H12.4703C12.335 8.57178 12.2059 8.51952 12.1106 8.4242C12.0152 8.32887 11.963 8.19977 11.963 8.06448V7.55411C11.963 7.27433 12.1905 7.04374 12.4734 7.04374H12.9807C13.1159 7.04374 13.2451 7.096 13.3404 7.19131C13.4356 7.28663 13.4879 7.41575 13.4879 7.55103V8.0614H13.4849V8.06448ZM9.66937 3.63716V0.685615C9.69395 0.150653 9.31274 0 9.15901 0H0.559558C0.076863 0 0 0.510372 0 0.559563V12.212H6.61637V4.75629C6.61637 4.75629 6.61637 4.14446 7.17594 4.14446H9.18668C9.46643 4.14446 9.66937 3.84008 9.66937 3.63716ZM2.79781 10.4073C2.79781 10.5425 2.74555 10.6716 2.65024 10.767C2.55493 10.8623 2.4258 10.9146 2.29052 10.9146H1.78015C1.64487 10.9146 1.51574 10.8623 1.42043 10.767C1.32512 10.6716 1.27285 10.5425 1.27285 10.4073V9.89685C1.27285 9.61707 1.50036 9.38655 1.78322 9.38655H2.2936C2.42887 9.38655 2.558 9.43881 2.65332 9.53413C2.74862 9.62946 2.80089 9.75856 2.80089 9.89385V10.4042H2.79781V10.4073ZM2.79781 7.7847C2.79781 7.91997 2.74555 8.04911 2.65024 8.14442C2.55493 8.23974 2.4258 8.292 2.29052 8.292H1.78015C1.64487 8.292 1.51574 8.23974 1.42043 8.14442C1.32512 8.04911 1.27285 7.91997 1.27285 7.7847V7.2774C1.27285 6.99762 1.50036 6.76703 1.78322 6.76703H2.2936C2.42887 6.76703 2.558 6.8193 2.65332 6.91461C2.74862 7.00991 2.80089 7.13905 2.80089 7.27433V7.78162H2.79781V7.7847ZM2.79781 5.1898C2.79781 5.32508 2.74555 5.4542 2.65024 5.54952C2.55493 5.64483 2.4258 5.6971 2.29052 5.6971H1.78015C1.64487 5.6971 1.51574 5.64483 1.42043 5.54952C1.32512 5.4542 1.27285 5.32508 1.27285 5.1898V4.67943C1.27285 4.39965 1.50036 4.16906 1.78322 4.16906H2.2936C2.42887 4.16906 2.558 4.22133 2.65332 4.31663C2.74862 4.41195 2.80089 4.54108 2.80089 4.67635V5.18672H2.79781V5.1898ZM2.79781 2.5949C2.79781 2.73018 2.74555 2.85931 2.65024 2.95461C2.55493 3.04993 2.4258 3.1022 2.29052 3.1022H1.78015C1.64487 3.1022 1.51574 3.04993 1.42043 2.95461C1.32512 2.85931 1.27285 2.73018 1.27285 2.5949V2.0876C1.27285 1.80782 1.50036 1.57723 1.78322 1.57723H2.2936C2.42887 1.57723 2.558 1.6295 2.65332 1.7248C2.74862 1.82012 2.80089 1.94925 2.80089 2.08452V2.59183H2.79781V2.5949ZM5.59871 10.4073C5.59871 10.5425 5.54644 10.6716 5.45113 10.767C5.35582 10.8623 5.22669 10.9146 5.09141 10.9146H4.58104C4.44577 10.9146 4.31663 10.8623 4.22132 10.767C4.12602 10.6716 4.07375 10.5425 4.07375 10.4073V9.89685C4.07375 9.61707 4.30126 9.38655 4.58104 9.38655H5.09141C5.22669 9.38655 5.35582 9.43881 5.45113 9.53413C5.54644 9.62946 5.59871 9.75856 5.59871 9.89385V10.4073ZM5.59871 7.7847C5.59871 7.91997 5.54644 8.04911 5.45113 8.14442C5.35582 8.23974 5.22669 8.292 5.09141 8.292H4.58104C4.44577 8.292 4.31663 8.23974 4.22132 8.14442C4.12602 8.04911 4.07375 7.91997 4.07375 7.7847V7.2774C4.07375 6.99762 4.30126 6.76703 4.58104 6.76703H5.09141C5.22669 6.76703 5.35582 6.8193 5.45113 6.91461C5.54644 7.00991 5.59871 7.13905 5.59871 7.27433V7.7847ZM5.59871 5.1898C5.59871 5.32508 5.54644 5.4542 5.45113 5.54952C5.35582 5.64483 5.22669 5.6971 5.09141 5.6971H4.58104C4.44577 5.6971 4.31663 5.64483 4.22132 5.54952C4.12602 5.4542 4.07375 5.32508 4.07375 5.1898V4.67943C4.07375 4.39965 4.30126 4.16906 4.58104 4.16906H5.09141C5.22669 4.16906 5.35582 4.22133 5.45113 4.31663C5.54644 4.41195 5.59871 4.54108 5.59871 4.67635V5.1898ZM5.59871 2.5949C5.59871 2.73018 5.54644 2.85931 5.45113 2.95461C5.35582 3.04993 5.22669 3.1022 5.09141 3.1022H4.58104C4.44577 3.1022 4.31663 3.04993 4.22132 2.95461C4.12602 2.85931 4.07375 2.73018 4.07375 2.5949V2.0876C4.07375 1.80782 4.30126 1.57723 4.58104 1.57723H5.09141C5.22669 1.57723 5.35582 1.6295 5.45113 1.7248C5.54644 1.82012 5.59871 1.94925 5.59871 2.08452V2.5949ZM8.39652 2.5949C8.39652 2.73018 8.34426 2.85931 8.24895 2.95461C8.15363 3.04993 8.0245 3.1022 7.88923 3.1022H7.37886C7.24358 3.1022 7.11445 3.04993 7.01914 2.95461C6.92383 2.85931 6.87156 2.73018 6.87156 2.5949V2.0876C6.87156 1.80782 7.09908 1.57723 7.37886 1.57723H7.88923C8.0245 1.57723 8.15363 1.6295 8.24895 1.7248C8.34426 1.82012 8.39652 1.94925 8.39652 2.08452V2.5949Z" fill="var(--fill-0, white)"/>
</svg>
