<svg width="16" height="16" viewBox="0 0 15.999 15.999" fill="none" xmlns="http://www.w3.org/2000/svg">
<g id="Icon" clip-path="url(#clip0_473_4169)">
<path id="Vector" fill-rule="evenodd" clip-rule="evenodd" d="M15.9332 7.72261C15.4413 6.73806 14.7957 5.8458 13.9964 5.13816L11.3832 7.72261V7.99952C11.3832 9.87632 9.87666 11.3839 8.00128 11.3839H7.72458L6.06441 13.0453C6.67929 13.1684 7.32491 13.2607 7.97054 13.2607C11.4446 13.2607 14.4575 11.2301 15.9025 8.30719C16.0255 8.09182 16.0255 7.90722 15.9332 7.72261ZM14.9185 1.72303L14.2729 1.07691C14.0884 0.892312 13.7502 0.923079 13.5351 1.16922L11.2907 3.41523C10.2762 2.98449 9.16941 2.76912 8.00114 2.76912C4.52706 2.76912 1.51414 4.79976 0.0691741 7.72266C-0.0230581 7.90726 -0.0230581 8.12263 0.0691741 8.27646C0.745543 9.661 1.76009 10.7994 3.0206 11.6608L1.17596 13.5377C0.960751 13.753 0.930007 14.0915 1.08373 14.2761L1.72935 14.9222C1.91381 15.1068 2.252 15.076 2.46721 14.8299L14.8263 2.46145C15.0723 2.24607 15.103 1.90763 14.9185 1.72303ZM4.61929 7.99964C4.61929 6.12284 6.12575 4.61524 8.00114 4.61524C8.61602 4.61524 9.16941 4.76907 9.66131 5.04598L8.739 5.969C8.49304 5.90747 8.24709 5.84593 8.00114 5.84593C6.80212 5.84593 5.84905 6.79972 5.84905 7.99964C5.84905 8.24579 5.91054 8.49192 5.97203 8.73806L5.04971 9.66108C4.77302 9.16881 4.61929 8.61499 4.61929 7.99964Z" fill="var(--fill-0, #4C4D57)"/>
</g>
<defs>
<clipPath id="clip0_473_4169">
<rect width="15.999" height="15.999" fill="white"/>
</clipPath>
</defs>
</svg>
