<svg width="18" height="17" viewBox="0 0 17.5685 16.6636" fill="none" xmlns="http://www.w3.org/2000/svg">
<path id="Vector" d="M10.3464 14.0183C9.83142 14.1157 9.30839 14.1645 8.78423 14.1641C5.05325 14.1641 1.89549 11.712 0.833182 8.33182C1.11919 7.42207 1.55971 6.56836 2.13544 5.80811M10.5506 10.0982L7.01622 6.56464C7.48502 6.09584 8.12084 5.83248 8.78382 5.83248C9.44679 5.83248 10.0826 6.09584 10.5514 6.56464C11.0202 7.03343 11.2836 7.66926 11.2836 8.33223C11.2836 8.99521 11.0202 9.63103 10.5514 10.0998L13.2934 12.841M7.01789 6.56547L4.27672 3.8243M4.27672 3.8243L1.2856 0.833182M4.27672 3.8243C5.62011 2.95743 7.18544 2.49738 8.78423 2.49954C12.5152 2.49954 15.673 4.9516 16.7353 8.33182C16.1488 10.1902 14.9309 11.785 13.2926 12.8402L16.2829 15.8305" stroke="var(--stroke-0, #8D9094)" stroke-width="1.66636" stroke-linecap="round" stroke-linejoin="round"/>
</svg>
