<svg preserveAspectRatio="none" width="100%" height="100%" overflow="visible" style="display: block;" viewBox="0 0 29.6597 29.5366" fill="none" xmlns="http://www.w3.org/2000/svg">
<path id="Vector" d="M24.7985 1.7845H17.4758C16.9836 0.738414 15.9374 0 14.7683 0C13.1684 0 11.8147 1.35376 11.8147 2.95366C11.8147 4.55356 13.1684 5.90732 14.7683 5.90732C15.999 5.90732 17.0451 5.16891 17.4758 4.12282H24.7985C26.0907 4.12282 27.1367 5.16891 27.1367 6.46114V11.1993C27.1367 12.4915 26.0907 13.5376 24.7985 13.5376H21.2294V9.96861C21.2294 8.98407 20.4295 8.1841 19.4449 8.1841H10.0301C9.04557 8.1841 8.24563 8.98407 8.24563 9.96861V13.5376H4.73816C2.15371 13.5376 0 15.6298 0 18.2758V23.014C0 25.5984 2.09218 27.7521 4.73816 27.7521H12.0608C12.4915 28.7982 13.5376 29.5366 14.7683 29.5366C16.3682 29.5366 17.7219 28.1829 17.7219 26.583C17.7219 24.9831 16.3682 23.6293 14.7683 23.6293C13.5376 23.6293 12.4915 24.3677 12.0608 25.4138H4.73816C3.44593 25.4138 2.39985 24.3677 2.39985 23.0755V18.3373C2.39985 17.0451 3.44593 15.999 4.73816 15.999H8.30717V19.568C8.30717 20.5525 9.10716 21.3525 10.0917 21.3525H19.568C20.5525 21.3525 21.3525 20.5525 21.3525 19.568V15.999H24.9215C27.506 15.999 29.6597 13.9069 29.6597 11.2608V6.52267C29.5366 3.87668 27.3829 1.7845 24.7985 1.7845Z" fill="var(--fill-0, #007167)"/>
</svg>
