<svg preserveAspectRatio="none" width="100%" height="100%" overflow="visible" style="display: block;" viewBox="0 0 23.0754 29.5366" fill="none" xmlns="http://www.w3.org/2000/svg">
<path id="Vector" d="M0.969969 0C0.438652 0 0.00617942 0.430653 0.00617942 0.95974V2.47932C0.00617942 3.00841 0.438652 3.43907 0.969969 3.43907H2.31682V7.17344C2.31682 7.641 2.4898 8.09011 2.79872 8.44079L7.43233 13.6456C7.58682 13.8178 7.67331 14.0455 7.67331 14.2792V15.8664C7.67331 16.6109 4.35561 19.7547 2.94081 21.065C2.5454 21.4342 2.31064 21.9449 2.31064 22.4862V26.0975H0.96379C0.432473 26.0975 0 26.5282 0 27.0572V28.5768C0 29.106 0.432473 29.5366 0.96379 29.5366H22.1117C22.643 29.5366 23.0754 29.106 23.0754 28.5768V27.0572C23.0754 26.5282 22.643 26.0975 22.1117 26.0975H20.7649V22.4923C20.7649 21.951 20.5301 21.428 20.1285 21.065C18.7013 19.7608 15.3774 16.6293 15.3774 15.8664V14.2853C15.3774 14.0516 15.4639 13.824 15.6184 13.6517L20.2767 8.44694C20.5919 8.09626 20.7649 7.641 20.7649 7.17344V3.43907H22.1117C22.643 3.43907 23.0754 3.00841 23.0754 2.47932V0.95974C23.0754 0.430653 22.643 0 22.1117 0H0.969969ZM5.57884 5.80151C5.10317 5.80151 4.72013 6.18294 4.72013 6.65665C4.72013 6.86583 4.79426 7.06886 4.93636 7.22266L9.23021 12.0521C9.77388 12.6673 10.0766 13.4548 10.0766 14.273V15.8603C10.0766 16.6417 9.71828 17.2569 9.60709 17.4414C9.4341 17.7429 9.21781 18.032 9.02013 18.2843C8.61855 18.795 8.09338 19.3609 7.57442 19.9023C6.68477 20.8251 5.67774 21.7849 4.95489 22.4616C4.80662 22.6031 4.72013 22.7938 4.72013 23.003C4.72013 23.4091 5.05374 23.7412 5.46151 23.7412H17.6387C18.0465 23.7412 18.3738 23.4152 18.3738 23.0092C18.3738 22.8061 18.2873 22.6092 18.1392 22.4739C17.4101 21.7972 16.3969 20.8436 15.5072 19.9208C14.9821 19.3793 14.4569 18.8134 14.0492 18.2966C13.8514 18.0443 13.6352 17.7552 13.456 17.4537C13.3449 17.2631 12.9865 16.6478 12.9865 15.8664V14.2853C12.9865 13.461 13.2893 12.6735 13.8391 12.0583L18.1577 7.22881C18.2997 7.07501 18.3738 6.87198 18.3738 6.66281C18.3738 6.18909 17.9909 5.80766 17.5151 5.80766H5.57884V5.80151Z" fill="var(--fill-0, #007167)"/>
</svg>
