<svg preserveAspectRatio="none" width="100%" height="100%" overflow="visible" style="display: block;" viewBox="0 0 29.5366 29.5366" fill="none" xmlns="http://www.w3.org/2000/svg">
<path id="Vector" d="M14.7683 0C6.60882 0 0 6.61497 0 14.7683C0 22.9216 6.61497 29.5366 14.7683 29.5366C22.9216 29.5366 29.5366 22.9216 29.5366 14.7683C29.5366 6.61497 22.9216 0 14.7683 0ZM18.645 5.23044C19.0142 4.59663 19.8142 4.36896 20.4295 4.73816H20.4665C21.0817 5.10737 21.2971 5.90732 20.9341 6.52267C20.5648 7.13801 19.7649 7.38415 19.1311 7.01494H19.1126C18.4973 6.64573 18.2512 5.84578 18.6204 5.23044H18.645ZM14.7991 3.22441C15.5191 3.22441 16.0913 3.8213 16.0913 4.54126C16.0913 5.26121 15.5006 5.85809 14.7745 5.85809H14.7375C13.9992 5.85809 13.4207 5.27352 13.4207 4.54741C13.4207 3.8213 14.0053 3.23057 14.7314 3.22441H14.7991ZM17.1374 9.99321C19.3957 11.3039 20.1772 14.2021 18.8604 16.4544C17.9989 17.9927 16.399 18.8543 14.7375 18.8543C13.9376 18.8543 13.1376 18.645 12.3808 18.2081C10.104 16.8974 9.32245 13.9992 10.6332 11.747C11.9439 9.47014 14.8483 8.69484 17.1251 9.9994L17.1374 9.99321ZM8.95327 4.82431H8.99017C9.29215 4.64887 9.65133 4.60055 9.98891 4.68999C10.3265 4.77942 10.6147 4.99929 10.7901 5.30121C10.9655 5.60313 11.0138 5.96238 10.9244 6.29992C10.835 6.63747 10.6152 6.92566 10.3132 7.1011H10.2948C9.67943 7.4703 8.86098 7.26724 8.49178 6.63959C8.40284 6.49061 8.34423 6.32553 8.3193 6.15384C8.29436 5.98215 8.30361 5.80721 8.3465 5.6391C8.38938 5.47099 8.46506 5.313 8.56919 5.17423C8.67333 5.03546 8.80388 4.91863 8.95327 4.83047V4.82431ZM4.7997 9.04557V9.00867C4.97681 8.71006 5.26439 8.49321 5.6002 8.40506C5.93601 8.31691 6.29302 8.36456 6.59396 8.53768C6.8949 8.7108 7.11556 8.99547 7.20816 9.33005C7.30077 9.66473 7.25789 10.0223 7.08879 10.3255V10.344C6.71958 10.99 5.91963 11.2054 5.30428 10.8548C4.68894 10.504 4.4428 9.68553 4.81201 9.07016L4.7997 9.04557ZM3.32287 14.7683V14.7068C3.32287 13.9869 3.90745 13.4146 4.63356 13.3961C5.37197 13.3961 5.95655 13.9807 5.96271 14.7068V14.7375C5.96271 15.476 5.38427 16.0667 4.67048 16.0728C3.93206 16.0728 3.34748 15.4945 3.33517 14.7806L3.32287 14.7683ZM6.70727 20.9217C6.09193 21.291 5.27351 21.0817 4.89815 20.4603V20.4234C4.73264 20.1212 4.69203 19.7662 4.785 19.4344C4.87798 19.1027 5.09715 18.8206 5.39559 18.6484C5.69403 18.4763 6.04801 18.4278 6.38174 18.5134C6.71546 18.5991 7.00239 18.812 7.18109 19.1065V19.1249C7.5503 19.7649 7.34108 20.571 6.71343 20.9402L6.70727 20.9217ZM14.8914 27.426C10.7932 27.426 8.09795 25.5184 8.09795 25.5184C9.02097 21.8633 11.2977 20.0418 14.7437 20.0418C18.1896 20.0418 20.8971 21.9187 21.5125 25.4568C21.5125 25.4568 18.6512 27.426 14.8852 27.426H14.8914ZM22.8109 8.43024C23.4263 8.06104 24.2446 8.2764 24.6139 8.90407V8.94097C24.9646 9.55633 24.7369 10.3563 24.1215 10.7255C23.817 10.8987 23.4564 10.9442 23.1184 10.852C22.7804 10.7597 22.4928 10.5372 22.3186 10.2332V10.2148C21.9494 9.57483 22.1647 8.76868 22.7924 8.40562L22.8109 8.43024ZM24.6569 20.3065V20.3434C24.2877 20.9587 23.4878 21.1802 22.8724 20.8171C22.2386 20.448 22.011 19.648 22.3801 19.0326V19.0142C22.7493 18.3743 23.5493 18.1527 24.1646 18.5219C24.4645 18.6953 24.6842 18.9794 24.7763 19.3133C24.8684 19.6472 24.8255 20.0039 24.6569 20.3065ZM24.8415 15.962C24.1031 15.962 23.5186 15.3714 23.5186 14.6452V14.6145C23.5161 14.2636 23.6532 13.9261 23.8995 13.6763C24.1459 13.4264 24.4814 13.2847 24.8323 13.2822C25.1832 13.2798 25.5206 13.4168 25.7705 13.6632C26.0203 13.9096 26.1621 14.2451 26.1645 14.596V14.6575C26.1645 15.3775 25.5738 15.9497 24.8477 15.9497L24.8415 15.962Z" fill="var(--fill-0, #007167)"/>
</svg>
