<svg preserveAspectRatio="none" width="100%" height="100%" overflow="visible" style="display: block;" viewBox="0 0 31.0135 31.0135" fill="none" xmlns="http://www.w3.org/2000/svg">
<path id="Vector" fill-rule="evenodd" clip-rule="evenodd" d="M15.5067 0C6.95341 0 0 6.95341 0 15.5067C0 24.06 6.95341 31.0135 15.5067 31.0135C24.06 31.0135 31.0135 24.06 31.0135 15.5067C31.0135 6.95341 24.06 0 15.5067 0ZM15.5064 27.9369C8.67609 27.9369 3.07644 22.3373 3.07644 15.5069C3.07644 8.67658 8.67609 3.07693 15.5064 3.07693C22.3368 3.07693 27.9364 8.67658 27.9364 15.5069C27.9364 22.3373 22.3368 27.9369 15.5064 27.9369ZM15.5065 6.215C10.3991 6.215 6.21476 10.3993 6.21476 15.5067C6.21476 20.6141 10.3991 24.7984 15.5065 24.7984C20.6139 24.7984 24.7982 20.6141 24.7982 15.5067C24.7982 10.3993 20.6139 6.215 15.5065 6.215ZM15.507 21.7218C12.1225 21.7218 9.29199 18.9528 9.29199 15.5069C9.29199 12.0609 12.1225 9.29189 15.507 9.29189C18.8914 9.29189 21.7219 12.1224 21.7219 15.5069C21.7219 18.8913 18.8914 21.7218 15.507 21.7218ZM15.5066 12.4299C13.7836 12.4299 12.4299 13.8451 12.4299 15.5066C12.4299 17.168 13.8452 18.5833 15.5066 18.5833C17.1681 18.5833 18.5833 17.168 18.5833 15.5066C18.5833 13.8451 17.2296 12.4299 15.5066 12.4299Z" fill="var(--fill-0, #007167)"/>
</svg>
