<svg preserveAspectRatio="none" width="100%" height="100%" overflow="visible" style="display: block;" viewBox="0 0 31.9379 23.3242" fill="none" xmlns="http://www.w3.org/2000/svg">
<path id="Vector" fill-rule="evenodd" clip-rule="evenodd" d="M9.78404 12.9236C8.92255 11.6313 8.49181 10.1543 8.49181 8.49266C8.49181 5.66177 9.66097 3.32321 11.507 1.90777C10.8916 0.80003 9.66097 0 8.06107 0C5.35354 0 3.81516 2.21547 3.81516 4.73865C3.81516 6.09251 4.2459 7.26184 5.16893 8.06189C5.66121 8.55416 6.09195 9.16962 6.09195 9.78498C6.09195 10.4004 5.84582 11.0158 4.30744 11.6928C2.09219 12.6774 0.0615349 14.0313 0 16.0622C0.0615349 17.4161 0.923022 18.4623 2.21525 18.4623H4.2459C4.55358 18.4623 4.86126 18.2776 5.04586 17.97C6.03041 16.1853 7.87646 15.0775 9.41483 14.2775C9.96865 14.0313 10.0917 13.3544 9.78404 12.9236ZM27.7522 11.6928C26.2138 11.0158 25.9676 10.4619 25.9676 9.78498C25.9676 9.10802 26.3984 8.49266 26.8906 8.06189C27.8137 7.20034 28.2444 6.09251 28.2444 4.73865C28.2444 2.21547 26.7675 0 23.9985 0C22.3986 0 21.1679 0.80003 20.491 1.90777C22.3371 3.32321 23.5062 5.66177 23.5062 8.49266C23.5062 10.1543 23.0755 11.6313 22.214 12.9236C21.9063 13.416 22.0909 14.0313 22.5832 14.2775C24.1216 15.0161 25.9676 16.1853 26.9522 17.97C27.1368 18.2776 27.4445 18.4623 27.7522 18.4623H29.7827C31.075 18.4623 31.9365 17.4161 31.9365 16.0622C31.998 14.0313 29.9674 12.6774 27.7522 11.6928ZM20.122 16.1855C18.4606 15.447 18.153 14.7701 18.153 14.0931C18.153 13.3546 18.6452 12.6776 19.1991 12.1853C20.1836 11.2622 20.7374 9.96987 20.7374 8.49286C20.7374 5.72353 19.076 3.3234 16.0608 3.3234C13.0456 3.3234 11.3841 5.72353 11.3841 8.49286C11.3841 9.96987 11.938 11.2622 12.9225 12.1853C13.4764 12.7392 13.9686 13.4162 13.9686 14.0931C13.9686 14.8316 13.7224 15.447 11.9995 16.1855C9.53808 17.2317 7.19976 18.4009 7.13822 20.6164C7.13822 22.0934 8.24586 23.3242 9.66116 23.3242H22.4604C23.8757 23.3242 24.9833 22.0934 24.9833 20.6164C24.9218 18.4625 22.5835 17.2932 20.122 16.1855Z" fill="var(--fill-0, #007167)"/>
</svg>
