<svg preserveAspectRatio="none" width="100%" height="100%" overflow="visible" style="display: block;" viewBox="0 0 29.5366 29.5366" fill="none" xmlns="http://www.w3.org/2000/svg">
<path id="Vector" fill-rule="evenodd" clip-rule="evenodd" d="M14.7683 0C6.5842 0 0 6.5842 0 14.7683C0 22.9524 6.5842 29.5366 14.7683 29.5366C22.9524 29.5366 29.5366 22.9524 29.5366 14.7683C29.5366 6.5842 22.9524 0 14.7683 0ZM14.7687 7.44573C15.8147 7.44573 16.6147 8.24568 16.6147 9.29175C16.6147 10.3379 15.8147 11.1378 14.7687 11.1378C13.7226 11.1378 12.9226 10.3379 12.9226 9.29175C12.9226 8.24568 13.7226 7.44573 14.7687 7.44573ZM17.8451 20.368C17.8451 20.6756 17.5989 20.9218 17.2298 20.9218H12.307C11.9993 20.9218 11.6917 20.7371 11.6917 20.368V19.1372C11.6917 18.8297 11.9378 18.4604 12.307 18.4604C12.6146 18.4604 12.9223 18.2758 12.9223 17.9066V15.4452C12.9223 15.1375 12.6762 14.7683 12.307 14.7683C11.9993 14.7683 11.6917 14.5837 11.6917 14.2145V12.9838C11.6917 12.6761 11.9378 12.307 12.307 12.307H15.999C16.3067 12.307 16.6144 12.6146 16.6144 12.9838V17.9066C16.6144 18.2143 16.8606 18.4604 17.2298 18.4604C17.5374 18.4604 17.8451 18.7681 17.8451 19.1372V20.368Z" fill="var(--fill-0, #007167)"/>
</svg>
