<svg width="40" height="40" viewBox="0 0 40 40" fill="none" xmlns="http://www.w3.org/2000/svg">
  <g transform="translate(5.184, 5.184)" fill="#ffffff">
    <path d="M14.8117 0C6.63951 0.000749863 0.0100069 6.62061 8.67466e-06 14.7943C-0.00370065 18.26 1.18238 21.4483 3.17313 23.9738C3.37939 24.2356 3.66156 24.3523 3.94003 24.3523C4.44512 24.3523 4.93722 23.9672 4.93722 23.3628V14.8002C4.94432 9.35052 9.36271 4.93692 14.811 4.93722C14.8151 4.93722 14.8199 4.93722 14.824 4.93722C15.5235 4.93802 16.2063 5.01131 16.8647 5.15088C16.9298 5.16458 16.9958 5.17168 17.0613 5.17168C17.3191 5.17168 17.5701 5.0672 17.756 4.88093L20.1526 2.48437C20.6637 1.97335 20.4722 1.10018 19.7912 0.857254C18.2404 0.303655 16.5703 0.00185966 14.8299 0C14.8232 0 14.818 0 14.8117 0Z"/>
  </g>
  <g transform="translate(15.06, 29.136)" fill="#ffffff">
    <path d="M0.989821 0C0.465416 0 0 0.416924 0 0.98542V4.11515C0 4.55247 0.287748 4.938 0.706872 5.06278C2.04143 5.46011 3.45567 5.67457 4.9195 5.67597C4.9261 5.67597 4.9324 5.67597 4.9391 5.67597C6.68578 5.67597 8.36258 5.37272 9.9189 4.81692C10.5999 4.57357 10.7921 3.70083 10.2807 3.18942L7.88446 0.793156C7.6986 0.60729 7.44754 0.502508 7.18979 0.502508C7.1242 0.502508 7.05831 0.509207 6.99283 0.523205C6.32955 0.664379 5.64187 0.738366 4.9361 0.738366H4.925C3.66633 0.736866 2.46285 0.499909 1.35635 0.0692871C1.23418 0.0218957 1.111 0 0.989821 0Z"/>
  </g>
  <g transform="translate(27.36, 9.956)" fill="#4E98AA">
    <path d="M7.45276 10.0584C7.44836 13.7599 6.08631 17.1441 3.83822 19.738C3.46199 20.172 2.79731 20.1972 2.39148 19.791L0.289663 17.6892C-0.0736707 17.3259 -0.0943662 16.7483 0.234074 16.3535C1.65642 14.6449 2.51296 12.4486 2.51556 10.0524C2.51886 7.64621 1.66091 5.43991 0.232573 3.72542C-0.0962669 3.3307 -0.0750702 2.7526 0.287764 2.38977L2.38848 0.28905C2.79441 -0.116846 3.45908 -0.0916702 3.83532 0.341941C6.09261 2.94447 7.45726 6.34235 7.45276 10.0584Z"/>
  </g>
  <g transform="translate(15.06, 15.06)" fill="#4E98AA">
    <path d="M4.9372 9.8745C7.664 9.8745 9.8744 7.664 9.8744 4.9372C9.8744 2.2105 7.664 0 4.9372 0C2.2104 0 0 2.2105 0 4.9372C0 7.664 2.2104 9.8745 4.9372 9.8745Z"/>
  </g>
</svg>
