<svg width="11" height="11" viewBox="0 0 10.9914 10.9914" fill="none" xmlns="http://www.w3.org/2000/svg">
<g id="Icon" clip-path="url(#clip0_497_37)">
<path id="Vector" d="M1.8319 6.41166C1.74524 6.41196 1.66027 6.38766 1.58687 6.34158C1.51346 6.29551 1.45464 6.22955 1.41723 6.15138C1.37982 6.0732 1.36536 5.98602 1.37553 5.89995C1.3857 5.81388 1.42008 5.73247 1.47468 5.66516L6.00865 0.993808C6.04266 0.954551 6.089 0.928023 6.14008 0.918577C6.19115 0.909132 6.24392 0.917332 6.28972 0.94183C6.33552 0.966327 6.37163 1.00567 6.39213 1.05339C6.41262 1.10112 6.41628 1.1544 6.4025 1.20448L5.52319 3.96149C5.49726 4.03089 5.48855 4.10554 5.49782 4.17903C5.50708 4.25253 5.53403 4.32269 5.57636 4.38348C5.61869 4.44428 5.67514 4.4939 5.74086 4.52808C5.80658 4.56227 5.87961 4.58 5.95369 4.57976H9.15952C9.24619 4.57947 9.33116 4.60377 9.40456 4.64984C9.47796 4.69592 9.53679 4.76187 9.5742 4.84005C9.6116 4.91822 9.62606 5.00541 9.61589 5.09148C9.60572 5.17754 9.57134 5.25896 9.51674 5.32626L4.98278 9.99762C4.94877 10.0369 4.90242 10.0634 4.85135 10.0728C4.80027 10.0823 4.74751 10.0741 4.70171 10.0496C4.65591 10.0251 4.61979 9.98576 4.5993 9.93803C4.57881 9.8903 4.57515 9.83703 4.58892 9.78695L5.46823 7.02993C5.49416 6.96054 5.50287 6.88589 5.49361 6.81239C5.48435 6.73889 5.4574 6.66874 5.41507 6.60794C5.37274 6.54715 5.31629 6.49753 5.25057 6.46334C5.18485 6.42916 5.11182 6.41142 5.03774 6.41166H1.8319Z" stroke="#9CA3AF" stroke-width="0.915952" stroke-linecap="round" stroke-linejoin="round"/>
</g>
<defs>
<clipPath id="clip0_497_37">
<rect width="10.9914" height="10.9914" fill="white"/>
</clipPath>
</defs>
</svg>
