<svg preserveAspectRatio="none" width="100%" height="100%" overflow="visible" style="display: block;" viewBox="0 0 11.3471 11.3778" fill="none" xmlns="http://www.w3.org/2000/svg">
<path id="Vector" fill-rule="evenodd" clip-rule="evenodd" d="M7.21109 5.48903L11.2087 1.46067C11.3932 1.27616 11.3932 0.999409 11.2087 0.814899L10.5937 0.169134C10.4092 -0.0153758 10.1324 -0.0153758 9.9479 0.169134L5.91955 4.1975C5.79655 4.3205 5.61204 4.3205 5.48903 4.1975L1.46067 0.138383C1.27616 -0.0461275 0.999409 -0.0461275 0.814899 0.138383L0.169134 0.784148C-0.0153758 0.968658 -0.0153758 1.24541 0.169134 1.42992L4.1975 5.45829C4.3205 5.58129 4.3205 5.7658 4.1975 5.8888L0.138383 9.9479C-0.0461275 10.1324 -0.0461275 10.4092 0.138383 10.5937L0.784148 11.2394C0.968658 11.4239 1.24541 11.4239 1.42992 11.2394L5.45829 7.21109C5.58129 7.08808 5.7658 7.08808 5.8888 7.21109L9.91722 11.2394C10.1017 11.4239 10.3784 11.4239 10.5629 11.2394L11.2087 10.5937C11.3932 10.4092 11.3932 10.1324 11.2087 9.9479L7.21109 5.91955C7.08808 5.79655 7.08808 5.61204 7.21109 5.48903Z" fill="var(--fill-0, #007F74)"/>
</svg>
