<svg width="16" height="16" viewBox="0 0 15.9905 15.9905" fill="none" xmlns="http://www.w3.org/2000/svg">
<g id="Icon" clip-path="url(#clip0_473_9793)">
<path id="Vector" d="M6.62072 10.3272C6.56124 10.0966 6.44105 9.88618 6.27267 9.7178C6.10429 9.54942 5.89387 9.42923 5.66329 9.36975L1.57573 8.31571C1.50599 8.29592 1.44461 8.25392 1.40091 8.19608C1.3572 8.13824 1.33356 8.06773 1.33356 7.99524C1.33356 7.92274 1.3572 7.85223 1.40091 7.79439C1.44461 7.73656 1.50599 7.69455 1.57573 7.67476L5.66329 6.62006C5.89379 6.56063 6.10416 6.44054 6.27253 6.27229C6.4409 6.10403 6.56113 5.89375 6.62072 5.66329L7.67476 1.57573C7.69435 1.50571 7.73631 1.44403 7.79424 1.4001C7.85216 1.35616 7.92287 1.33237 7.99557 1.33237C8.06827 1.33237 8.13898 1.35616 8.1969 1.4001C8.25482 1.44403 8.29678 1.50571 8.31638 1.57573L9.36975 5.66329C9.42923 5.89387 9.54942 6.10429 9.7178 6.27267C9.88618 6.44105 10.0966 6.56124 10.3272 6.62072L14.4147 7.67409C14.485 7.69348 14.547 7.7354 14.5912 7.79341C14.6354 7.85142 14.6593 7.92232 14.6593 7.99524C14.6593 8.06815 14.6354 8.13905 14.5912 8.19706C14.547 8.25507 14.485 8.29699 14.4147 8.31638L10.3272 9.36975C10.0966 9.42923 9.88618 9.54942 9.7178 9.7178C9.54942 9.88618 9.42923 10.0966 9.36975 10.3272L8.31571 14.4147C8.29612 14.4848 8.25416 14.5464 8.19624 14.5904C8.13831 14.6343 8.06761 14.6581 7.9949 14.6581C7.9222 14.6581 7.85149 14.6343 7.79357 14.5904C7.73565 14.5464 7.69369 14.4848 7.67409 14.4147L6.62072 10.3272Z" stroke="var(--stroke-0, #007167)" stroke-width="1.33254" stroke-linecap="round" stroke-linejoin="round"/>
<path id="Vector_2" d="M13.3254 1.99881V4.66389" stroke="var(--stroke-0, #007167)" stroke-width="1.33254" stroke-linecap="round" stroke-linejoin="round"/>
<path id="Vector_3" d="M14.6579 3.33135H11.9929" stroke="var(--stroke-0, #007167)" stroke-width="1.33254" stroke-linecap="round" stroke-linejoin="round"/>
<path id="Vector_4" d="M2.66508 11.3266V12.6591" stroke="var(--stroke-0, #007167)" stroke-width="1.33254" stroke-linecap="round" stroke-linejoin="round"/>
<path id="Vector_5" d="M3.33135 11.9929H1.99881" stroke="var(--stroke-0, #007167)" stroke-width="1.33254" stroke-linecap="round" stroke-linejoin="round"/>
</g>
<defs>
<clipPath id="clip0_473_9793">
<rect width="15.9905" height="15.9905" fill="white"/>
</clipPath>
</defs>
</svg>
