<svg width="100%" height="100%" overflow="visible" style="display: block;" viewBox="0 0 11.9906 11.9906" fill="none" xmlns="http://www.w3.org/2000/svg">
<g id="Icon" clip-path="url(#clip0_566_877)">
<path id="Vector" d="M7.34427 3.14754C7.25273 3.24094 7.20145 3.3665 7.20145 3.49727C7.20145 3.62805 7.25273 3.75361 7.34427 3.847L8.14365 4.64638C8.23704 4.73792 8.3626 4.78919 8.49337 4.78919C8.62415 4.78919 8.74971 4.73792 8.8431 4.64638L10.7266 2.76284C10.9779 3.31801 11.0539 3.93655 10.9447 4.53603C10.8355 5.13552 10.5461 5.68749 10.1152 6.11837C9.68437 6.54925 9.1324 6.83858 8.53292 6.94781C7.93343 7.05704 7.31489 6.98097 6.75973 6.72975L3.30742 10.1821C3.10866 10.3808 2.83909 10.4925 2.558 10.4925C2.27692 10.4925 2.00735 10.3808 1.80859 10.1821C1.60983 9.9833 1.49817 9.71373 1.49817 9.43264C1.49817 9.15156 1.60983 8.88198 1.80859 8.68323L5.2609 5.23092C5.00967 4.67576 4.93361 4.05722 5.04284 3.45773C5.15207 2.85824 5.4414 2.30628 5.87228 1.8754C6.30316 1.44452 6.85512 1.15518 7.45461 1.04596C8.0541 0.936727 8.67264 1.01279 9.2278 1.26401L7.34927 3.14255L7.34427 3.14754Z" stroke="#EF4444" stroke-width="0.999221" stroke-linecap="round" stroke-linejoin="round"/>
</g>
<defs>
<clipPath id="clip0_566_877">
<rect width="11.9906" height="11.9906" fill="white"/>
</clipPath>
</defs>
</svg>
