<svg preserveAspectRatio="none" width="100%" height="100%" overflow="visible" style="display: block;" viewBox="0 0 15.999 15.999" fill="none" xmlns="http://www.w3.org/2000/svg">
<g id="Icon" clip-path="url(#clip0_473_4143)">
<path id="Vector" d="M31.6637 1.87748C31.4797 1.13846 30.9376 0.556435 30.2492 0.358915C29.0015 0 23.9985 0 23.9985 0C23.9985 0 18.9955 0 17.7478 0.358915C17.0594 0.556465 16.5173 1.13846 16.3333 1.87748C15.999 3.21699 15.999 6.01177 15.999 6.01177C15.999 6.01177 15.999 8.8065 16.3333 10.146C16.5173 10.885 17.0594 11.4428 17.7478 11.6403C18.9955 11.9993 23.9985 11.9993 23.9985 11.9993C23.9985 11.9993 29.0015 11.9993 30.2492 11.6403C30.9376 11.4428 31.4797 10.885 31.6637 10.146C31.998 8.8065 31.998 6.01177 31.998 6.01177C31.998 6.01177 31.998 3.21699 31.6637 1.87748ZM22.3622 8.54917V3.47431L26.5438 6.01182L22.3622 8.54917Z" fill="var(--fill-0, white)"/>
</g>
<defs>
<clipPath id="clip0_473_4143">
<rect width="15.999" height="15.999" fill="white"/>
</clipPath>
</defs>
</svg>
