<svg width="28" height="28" viewBox="0 0 27.9951 27.9951" fill="none" xmlns="http://www.w3.org/2000/svg">
<g id="Icon">
<path id="Vector" d="M16.9137 4.66585H11.0814L8.16524 8.16524H4.66585C4.04712 8.16524 3.45373 8.41103 3.01622 8.84854C2.57872 9.28605 2.33293 9.87944 2.33293 10.4982V20.9963C2.33293 21.6151 2.57872 22.2085 3.01622 22.646C3.45373 23.0835 4.04712 23.3293 4.66585 23.3293H23.3293C23.948 23.3293 24.5414 23.0835 24.9789 22.646C25.4164 22.2085 25.6622 21.6151 25.6622 20.9963V10.4982C25.6622 9.87944 25.4164 9.28605 24.9789 8.84854C24.5414 8.41103 23.948 8.16524 23.3293 8.16524H19.8299L16.9137 4.66585Z" stroke="white" stroke-width="1.74969" stroke-linecap="round" stroke-linejoin="round"/>
<path id="Vector_2" d="M13.9976 18.6634C15.9302 18.6634 17.4969 17.0967 17.4969 15.164C17.4969 13.2314 15.9302 11.6646 13.9976 11.6646C12.0649 11.6646 10.4982 13.2314 10.4982 15.164C10.4982 17.0967 12.0649 18.6634 13.9976 18.6634Z" stroke="white" stroke-width="1.74969" stroke-linecap="round" stroke-linejoin="round"/>
</g>
</svg>
