<svg width="24" height="24" viewBox="0 0 23.998 23.998" fill="none" xmlns="http://www.w3.org/2000/svg">
  <g transform="translate(-1.58 -0.98)">
    <path d="M11.0871 19.2142L11.087 19.7141L11.0868 20.2141M11.0871 19.2142C12.3822 19.2145 13.4325 20.2641 13.4325 21.5597M11.0871 19.2142C9.7918 19.2142 8.74051 20.2637 8.74049 21.5597M13.4325 21.5597H12.9325H12.4325M13.4325 21.5597C13.4325 22.8553 12.3821 23.9049 11.087 23.9052M11.087 23.9052V23.4052L11.0868 22.9053M11.087 23.9052C9.79168 23.9052 8.74049 22.8557 8.74049 21.5597M8.74049 21.5597H9.24045H9.74041M20.0852 19.2142V19.7141V20.2141M20.0852 19.2142C21.3805 19.2142 22.4317 20.2637 22.4317 21.5597M20.0852 19.2142C18.79 19.2145 17.7398 20.2641 17.7397 21.5597M22.4317 21.5597H21.9317H21.4318M22.4317 21.5597C22.4317 22.8557 21.3804 23.9052 20.0851 23.9052M20.0851 23.9052L20.0852 23.4052V22.9053M20.0851 23.9052C18.7899 23.9049 17.7397 22.8553 17.7397 21.5597M17.7397 21.5597H18.2396H18.7396M6.60982 3.33077L7.09356 3.20438M6.60982 3.33077L7.09215 3.19922M6.60982 3.33077L6.12748 3.46231C6.04915 3.17516 5.78753 2.99974 5.54839 2.99974M6.60982 3.33077L6.1261 3.45714L6.40341 4.51858M7.09356 3.20438L7.09215 3.19922M7.09356 3.20438L7.37085 4.26582L6.88713 4.3922M7.09215 3.19922C6.89357 2.47108 6.23223 1.99983 5.54839 1.99983M6.88713 4.3922L6.40341 4.51858M6.88713 4.3922V4.89215M6.88713 4.3922V3.89224H23.916M6.40341 4.51858L6.50102 4.89215H6.88713M6.88713 4.89215H23.916M24.6083 5.31498L25.0891 5.45231M24.6083 5.31498L25.0907 5.44652M24.6083 5.31498L24.1259 5.18343C24.1537 5.08145 24.1282 5.01529 24.0954 4.97398C24.0582 4.92714 23.9953 4.89215 23.916 4.89215M24.6083 5.31498L24.1275 5.17765L22.0974 12.2845M25.0891 5.45231L25.0907 5.44652M25.0891 5.45231L23.0589 12.5591L22.5782 12.4218M25.0907 5.44652C25.3211 4.60139 24.6867 3.89224 23.916 3.89224M22.5782 12.4218L22.0974 12.2845M22.5782 12.4218L22.0832 12.3511M22.5782 12.4218L23.0731 12.4925C22.9849 13.1099 22.4055 13.4752 21.8858 13.4754M22.0974 12.2845L22.0881 12.3173L22.0832 12.3511M22.0832 12.3511C22.0815 12.3629 22.0721 12.3917 22.0302 12.424C21.9869 12.4575 21.9318 12.4755 21.8856 12.4755M21.8858 13.4754V12.9754L21.8856 12.4755M21.8858 13.4754H10.8555M10.8555 12.4755V12.9754V13.4754M10.8555 12.4755H21.8856M10.8555 12.4755C9.84816 12.4757 9.01941 13.4782 9.36565 14.5181L9.84001 14.3601M9.84001 14.3601H10.34M9.84001 14.3601L10.3144 14.2021M9.84001 14.3601H9.34005V14.406M10.34 14.3601V14.279L10.3144 14.2021M10.34 14.3601V14.406H9.84001M10.3144 14.2021C10.1997 13.8578 10.4788 13.4755 10.8555 13.4754M9.84001 14.406H9.34005M9.84001 14.406L9.36113 14.5497M9.84001 14.406L10.3189 14.2623C10.3948 14.5155 10.6182 14.6911 10.9016 14.6912M9.34005 14.406V14.4794L9.36113 14.5497M9.36113 14.5497C9.562 15.2192 10.1697 15.6908 10.9013 15.6911M10.9013 15.6911L10.9014 15.1911L10.9016 14.6912M10.9013 15.6911H22.3468M23.4551 16.3912L23.9536 16.4296M23.4551 16.3912L23.9538 16.4268M23.4551 16.3912L22.9563 16.3555C22.9812 16.0076 22.6654 15.6911 22.3468 15.6911M23.4551 16.3912L22.9565 16.3527C22.9326 16.6636 22.6231 16.9526 22.2549 16.9527M23.9536 16.4296L23.9538 16.4268M23.9536 16.4296C23.885 17.3182 23.0863 17.9524 22.255 17.9526M23.9538 16.4268C24.0211 15.4826 23.228 14.6912 22.3468 14.6912M22.255 17.9526V17.4526L22.2549 16.9527M22.255 17.9526H9.24044M9.24044 17.9526L9.24045 17.4526V16.9527M9.24044 17.9526C8.49804 17.9526 7.89197 17.4692 7.69667 16.7532L8.17901 16.6216M8.17901 16.6216L8.66147 16.49M8.17901 16.6216L8.65845 16.4798M8.17901 16.6216L7.69958 16.7634L4.19207 4.90309L4.6715 4.76131M8.66147 16.49L8.65845 16.4798M8.66147 16.49C8.74307 16.7892 8.96755 16.9527 9.24045 16.9527M8.65845 16.4798L5.15093 4.61953M4.6715 4.76131L5.15093 4.61953M4.6715 4.76131V4.26136M4.6715 4.76131V5.26127H3.61001M5.15093 4.61953L5.04501 4.26136H4.6715M4.6715 4.26136H3.61007M3.61001 5.26127L3.61007 4.76131V4.26136M3.61001 5.26127C2.72827 5.26117 1.93665 4.46924 2.00406 3.5256M2.50274 3.56122L2.00425 3.52286M2.50274 3.56122L2.00406 3.5256M2.50274 3.56122L3.00143 3.59683C2.97654 3.94531 3.29201 4.26132 3.61007 4.26136M2.50274 3.56122L3.00122 3.59957C3.02515 3.28861 3.33455 2.99974 3.70283 2.99974M2.00425 3.52286L2.00406 3.5256M2.00425 3.52286C2.07265 2.63396 2.87125 1.99983 3.70283 1.99983M11.0868 20.2141C11.8302 20.2143 12.4325 20.8165 12.4325 21.5597M11.0868 20.2141C10.3431 20.2141 9.74042 20.8166 9.74041 21.5597M12.4325 21.5597C12.4325 22.3028 11.8303 22.9051 11.0868 22.9053M11.0868 22.9053C10.3431 22.9053 9.74041 22.3027 9.74041 21.5597M20.0852 20.2141C20.8289 20.2141 21.4318 20.8166 21.4318 21.5597M20.0852 20.2141C19.3418 20.2143 18.7396 20.8165 18.7396 21.5597M21.4318 21.5597C21.4318 22.3027 20.8289 22.9053 20.0852 22.9053M20.0852 22.9053C19.3418 22.9051 18.7396 22.3028 18.7396 21.5597M5.54839 2.99974V2.49979V1.99983M5.54839 2.99974H3.70283M5.54839 1.99983H3.70283M23.916 4.89215V4.3922V3.89224M10.9016 14.6912H22.3468M22.3468 15.6911V15.1911V14.6912M22.2549 16.9527H9.24045M3.70283 2.99974V2.49979V1.99983" stroke="#007167" stroke-width="1.6"/>
  </g>
</svg>
