<svg width="32" height="32" viewBox="0 0 31.9932 31.9932" fill="none" xmlns="http://www.w3.org/2000/svg">
<g id="AIChatbot" clip-path="url(#clip0_473_9747)">
<path id="Vector" d="M21.9083 16.7875L17.3809 19.0403C16.0208 19.7182 14.9206 20.8147 14.2405 22.1704L11.9802 26.6828C11.6601 27.3274 10.7333 27.3274 10.4132 26.6828L8.1529 22.1704C7.4728 20.8147 6.37263 19.7182 5.01242 19.0403L0.485073 16.7875C-0.161692 16.4684 -0.161692 15.5447 0.485073 15.2257L5.01242 12.9728C6.37263 12.295 7.4728 11.1985 8.1529 9.84274L10.4132 5.33037C10.7333 4.68574 11.6601 4.68574 11.9802 5.33037L14.2405 9.84274C14.9206 11.1985 16.0208 12.295 17.3809 12.9728L21.9083 15.2257C22.5551 15.5447 22.5551 16.4684 21.9083 16.7875ZM31.7832 26.8223L29.8428 25.852C29.2561 25.5662 28.7893 25.0877 28.496 24.5096L27.5225 22.5757C27.3892 22.2967 26.9891 22.2967 26.8491 22.5757L25.8756 24.5096C25.5889 25.0944 25.1088 25.5596 24.5287 25.852L22.5884 26.8223C22.3084 26.9552 22.3084 27.354 22.5884 27.4935L24.5287 28.4638C25.1155 28.7496 25.5822 29.228 25.8756 29.8062L26.8491 31.7401C26.9825 32.0191 27.3825 32.0191 27.5225 31.7401L28.496 29.8062C28.7827 29.2213 29.2627 28.7561 29.8428 28.4638L31.7832 27.4935C32.0632 27.3606 32.0632 26.9618 31.7832 26.8223ZM31.7832 4.49966L29.8428 3.5294C29.2561 3.24364 28.7893 2.76515 28.496 2.18698L27.5225 0.253111C27.3892 -0.0260053 26.9891 -0.0260053 26.8491 0.253111L25.8756 2.18698C25.5889 2.7718 25.1088 3.237 24.5287 3.5294L22.5884 4.49966C22.3084 4.63257 22.3084 5.03131 22.5884 5.17087L24.5287 6.14112C25.1155 6.42689 25.5822 6.90537 25.8756 7.48354L26.8491 9.41742C26.9825 9.69654 27.3825 9.69654 27.5225 9.41742L28.496 7.48354C28.7827 6.89873 29.2627 6.43354 29.8428 6.14112L31.7832 5.17087C32.0632 5.03795 32.0632 4.63922 31.7832 4.49966Z" fill="var(--fill-0, white)"/>
</g>
<defs>
<clipPath id="clip0_473_9747">
<rect width="31.9932" height="31.9932" fill="white"/>
</clipPath>
</defs>
</svg>
