<svg preserveAspectRatio="none" width="100%" height="100%" overflow="visible" style="display: block;" viewBox="0 0 15.9875 15.9875" fill="none" xmlns="http://www.w3.org/2000/svg">
<g id="Icon" clip-path="url(#clip0_473_9676)">
<path id="Vector" d="M9.79236 4.19673C9.6703 4.32125 9.60194 4.48866 9.60194 4.66303C9.60194 4.83739 9.6703 5.00481 9.79236 5.12933L10.8582 6.19517C10.9827 6.31722 11.1501 6.38559 11.3245 6.38559C11.4989 6.38559 11.6663 6.31722 11.7908 6.19517L14.3022 3.68379C14.6371 4.42401 14.7386 5.24873 14.5929 6.04805C14.4473 6.84736 14.0615 7.58331 13.487 8.15782C12.9125 8.73233 12.1765 9.11811 11.3772 9.26375C10.5779 9.40938 9.75318 9.30796 9.01297 8.973L4.40989 13.5761C4.14488 13.8411 3.78545 13.99 3.41067 13.99C3.03589 13.99 2.67646 13.8411 2.41145 13.5761C2.14644 13.3111 1.99756 12.9516 1.99756 12.5769C1.99756 12.2021 2.14644 11.8426 2.41145 11.5776L7.01453 6.97456C6.67957 6.23434 6.57815 5.40962 6.72378 4.61031C6.86942 3.81099 7.2552 3.07504 7.82971 2.50053C8.40421 1.92602 9.14016 1.54024 9.93948 1.39461C10.7388 1.24897 11.5635 1.35039 12.3037 1.68535L9.79902 4.19006L9.79236 4.19673Z" stroke="#6B4FA0" stroke-width="1.33229" stroke-linecap="round" stroke-linejoin="round"/>
</g>
<defs>
<clipPath id="clip0_473_9676">
<rect width="15.9875" height="15.9875" fill="white"/>
</clipPath>
</defs>
</svg>
