<svg width="15" height="15" viewBox="0 0 14.7604 14.7604" fill="none" xmlns="http://www.w3.org/2000/svg">
<path id="Icon" fill-rule="evenodd" clip-rule="evenodd" d="M7.38022 0C3.29034 0 0 3.29034 0 7.38022C0 11.4701 3.29034 14.7604 7.38022 14.7604C11.4701 14.7604 14.7604 11.4701 14.7604 7.38022C14.7604 3.29034 11.4701 0 7.38022 0ZM7.38017 13.2225C4.15132 13.2225 1.5375 10.6087 1.5375 7.37983C1.5375 7.07232 1.56825 6.73406 1.62975 6.4573C2.02952 6.5188 2.52152 6.67256 2.76754 6.91856C3.29029 7.47208 3.87457 8.11785 4.42809 8.24085C4.42809 8.24085 4.36658 8.27161 4.30508 8.36385C4.24358 8.45611 4.18207 8.64062 4.18207 8.94812C4.18207 10.3934 5.53512 9.53243 5.53512 10.9777C5.53512 12.423 7.16492 13.0073 7.16492 11.8387C7.16492 10.6702 8.24119 10.1167 8.24119 9.22488C8.24119 8.33311 7.41092 8.36385 6.88815 8.05634C6.33464 7.77959 6.05789 7.31832 5.01235 7.47208C4.45884 6.94931 4.15132 6.5188 4.39733 6.02678C4.67409 5.50403 5.81187 5.41177 5.81187 4.61225C5.81187 3.81272 5.0431 3.65896 4.48959 3.65896C4.24358 3.65896 3.72081 3.47446 3.29029 3.2592C3.81306 2.73644 4.45884 2.30593 5.13535 1.99841C5.62737 2.21368 6.45765 2.55193 7.16492 2.55193C7.99519 2.55193 8.4257 1.96766 8.3027 1.59865C9.68644 1.81391 10.9165 2.52118 11.8083 3.50522C11.3471 3.78197 10.732 4.08948 9.65576 4.08948C8.24119 4.08948 8.24119 5.53478 9.07147 5.81153C9.9325 6.08829 10.7935 5.25801 11.0703 5.81153C11.3471 6.36504 9.07147 6.36504 9.65576 7.77959C10.24 9.19413 10.7935 7.74884 11.3778 9.16339C11.9621 10.5779 13.0998 8.94812 12.2388 7.84109C11.8698 7.34908 11.9621 5.84228 12.8231 5.84228H13.0998C13.2228 6.3343 13.3151 6.85706 13.3151 7.37983C13.2228 10.6087 10.609 13.2225 7.38017 13.2225Z" fill="var(--fill-0, #007167)"/>
</svg>
