<svg width="100%" height="100%" overflow="visible" style="display: block;" viewBox="0 0 13.9947 13.9947" fill="none" xmlns="http://www.w3.org/2000/svg">
<g id="Icon" clip-path="url(#clip0_562_862)">
<path id="Vector" d="M1.20238 7.20029C1.15378 7.06937 1.15378 6.92536 1.20238 6.79444C1.67569 5.64679 2.47912 4.66551 3.51079 3.97503C4.54247 3.28454 5.75594 2.91593 6.99736 2.91593C8.23879 2.91593 9.45225 3.28454 10.4839 3.97503C11.5156 4.66551 12.319 5.64679 12.7923 6.79444C12.8409 6.92536 12.8409 7.06937 12.7923 7.20029C12.319 8.34794 11.5156 9.32921 10.4839 10.0197C9.45225 10.7102 8.23879 11.0788 6.99736 11.0788C5.75594 11.0788 4.54247 10.7102 3.51079 10.0197C2.47912 9.32921 1.67569 8.34794 1.20238 7.20029Z" stroke="#0B9C92" stroke-width="1.16623" stroke-linecap="round" stroke-linejoin="round"/>
<path id="Vector_2" d="M6.99736 8.7467C7.9635 8.7467 8.7467 7.9635 8.7467 6.99736C8.7467 6.03123 7.9635 5.24802 6.99736 5.24802C6.03123 5.24802 5.24802 6.03123 5.24802 6.99736C5.24802 7.9635 6.03123 8.7467 6.99736 8.7467Z" stroke="#0B9C92" stroke-width="1.16623" stroke-linecap="round" stroke-linejoin="round"/>
</g>
<defs>
<clipPath id="clip0_562_862">
<rect width="13.9947" height="13.9947" fill="white"/>
</clipPath>
</defs>
</svg>
