<svg width="32" height="32" viewBox="0 0 31.992 31.992" fill="none" xmlns="http://www.w3.org/2000/svg">
<g id="SparkleIcon" clip-path="url(#clip0_548_26)">
<path id="Vector" opacity="0.95" d="M21.9075 16.7868L17.3803 19.0396C16.0202 19.7174 14.9201 20.8139 14.24 22.1696L11.9797 26.6818C11.6597 27.3264 10.7329 27.3264 10.4129 26.6818L8.1526 22.1696C7.47252 20.8139 6.3724 19.7174 5.01224 19.0396L0.485056 16.7868C-0.161685 16.4678 -0.161685 15.5441 0.485056 15.2252L5.01224 12.9723C6.3724 12.2945 7.47252 11.1981 8.1526 9.84237L10.4129 5.33017C10.7329 4.68556 11.6597 4.68556 11.9797 5.33017L14.24 9.84237C14.9201 11.1981 16.0202 12.2945 17.3803 12.9723L21.9075 15.2252C22.5543 15.5441 22.5543 16.4678 21.9075 16.7868ZM31.782 26.8213L29.8417 25.851C29.2551 25.5653 28.7883 25.0868 28.4949 24.5087L27.5214 22.5749C27.3882 22.2958 26.9881 22.2958 26.8481 22.5749L25.8746 24.5087C25.588 25.0935 25.1079 25.5587 24.5278 25.851L22.5875 26.8213C22.3076 26.9542 22.3076 27.3529 22.5875 27.4925L24.5278 28.4627C25.1146 28.7485 25.5813 29.227 25.8746 29.8051L26.8481 31.7389C26.9815 32.0179 27.3815 32.0179 27.5214 31.7389L28.4949 29.8051C28.7817 29.2203 29.2617 28.7551 29.8417 28.4627L31.782 27.4925C32.062 27.3595 32.062 26.9608 31.782 26.8213ZM31.782 4.49949L29.8417 3.52927C29.2551 3.24352 28.7883 2.76505 28.4949 2.1869L27.5214 0.253102C27.3882 -0.0260032 26.9881 -0.0260032 26.8481 0.253102L25.8746 2.1869C25.588 2.7717 25.1079 3.23688 24.5278 3.52927L22.5875 4.49949C22.3076 4.6324 22.3076 5.03112 22.5875 5.17067L24.5278 6.1409C25.1146 6.42665 25.5813 6.90512 25.8746 7.48326L26.8481 9.41707C26.9815 9.69618 27.3815 9.69618 27.5214 9.41707L28.4949 7.48326C28.7817 6.89847 29.2617 6.4333 29.8417 6.1409L31.782 5.17067C32.062 5.03777 32.062 4.63905 31.782 4.49949Z" fill="white"/>
</g>
<defs>
<clipPath id="clip0_548_26">
<rect width="31.992" height="31.992" fill="white"/>
</clipPath>
</defs>
</svg>
