<svg width="15" height="15" viewBox="0 0 14.7604 14.7604" fill="none" xmlns="http://www.w3.org/2000/svg">
<path id="Vector" fill-rule="evenodd" clip-rule="evenodd" d="M14.2992 8.91769H13.3766C13.1306 8.91769 12.9154 9.13295 12.9154 9.37897V12.4541C12.9154 12.7001 12.7001 12.9154 12.4541 12.9154H2.30632C2.06031 12.9154 1.84506 12.7001 1.84506 12.4541V9.37897C1.84506 9.13295 1.62979 8.91769 1.38379 8.91769H0.46126C0.215256 8.91769 0 9.13295 0 9.37897V13.5304C0 14.2069 0.553515 14.7604 1.23003 14.7604H13.5304C14.2069 14.7604 14.7604 14.2069 14.7604 13.5304V9.37897C14.7604 9.13295 14.5451 8.91769 14.2992 8.91769ZM7.07273 10.9475C7.25724 11.132 7.534 11.132 7.7185 10.9475L11.8698 6.79606C12.0543 6.61155 12.0543 6.33478 11.8698 6.15027L11.2241 5.50449C11.0396 5.31998 10.7628 5.31998 10.5783 5.50449L8.85629 7.22657C8.67178 7.41108 8.33352 7.28807 8.33352 7.01132V0.46127C8.30277 0.215259 8.05676 0 7.8415 0H6.91897C6.67297 0 6.45772 0.215259 6.45772 0.46127V6.98057C6.45772 7.25732 6.11945 7.38033 5.93495 7.19582L4.21289 5.47374C4.02839 5.28923 3.75163 5.28923 3.56713 5.47374L2.92135 6.15027C2.73685 6.33478 2.73685 6.61155 2.92135 6.79606L7.07273 10.9475Z" fill="var(--fill-0, #0B9C92)"/>
</svg>
