<svg width="100%" height="100%" overflow="visible" style="display: block;" viewBox="0 0 13.9947 13.9947" fill="none" xmlns="http://www.w3.org/2000/svg">
<g id="Icon" clip-path="url(#clip0_562_866)">
<path id="Vector" d="M8.16359 10.496V3.49868C8.16359 3.18938 8.04072 2.89274 7.82201 2.67403C7.6033 2.45532 7.30666 2.33245 6.99736 2.33245H2.33245C2.02315 2.33245 1.72652 2.45532 1.50781 2.67403C1.2891 2.89274 1.16623 3.18938 1.16623 3.49868V9.91293C1.16623 10.0676 1.22766 10.2159 1.33702 10.3253C1.44637 10.4346 1.59469 10.496 1.74934 10.496H2.91557" stroke="#0B9C92" stroke-width="1.16623" stroke-linecap="round" stroke-linejoin="round"/>
<path id="Vector_2" d="M8.7467 10.496H5.24802" stroke="#0B9C92" stroke-width="1.16623" stroke-linecap="round" stroke-linejoin="round"/>
<path id="Vector_3" d="M11.0792 10.496H12.2454C12.4 10.496 12.5484 10.4346 12.6577 10.3253C12.7671 10.2159 12.8285 10.0676 12.8285 9.91293V7.78457C12.8283 7.65224 12.783 7.52392 12.7002 7.4207L10.671 4.88416C10.6164 4.81587 10.5473 4.7607 10.4685 4.72275C10.3898 4.6848 10.3035 4.66503 10.2161 4.66491H8.16359" stroke="#0B9C92" stroke-width="1.16623" stroke-linecap="round" stroke-linejoin="round"/>
<path id="Vector_4" d="M9.91293 11.6623C10.557 11.6623 11.0792 11.1401 11.0792 10.496C11.0792 9.85195 10.557 9.32982 9.91293 9.32982C9.26884 9.32982 8.7467 9.85195 8.7467 10.496C8.7467 11.1401 9.26884 11.6623 9.91293 11.6623Z" stroke="#0B9C92" stroke-width="1.16623" stroke-linecap="round" stroke-linejoin="round"/>
<path id="Vector_5" d="M4.08179 11.6623C4.72588 11.6623 5.24802 11.1401 5.24802 10.496C5.24802 9.85195 4.72588 9.32982 4.08179 9.32982C3.43771 9.32982 2.91557 9.85195 2.91557 10.496C2.91557 11.1401 3.43771 11.6623 4.08179 11.6623Z" stroke="#0B9C92" stroke-width="1.16623" stroke-linecap="round" stroke-linejoin="round"/>
</g>
<defs>
<clipPath id="clip0_562_866">
<rect width="13.9947" height="13.9947" fill="white"/>
</clipPath>
</defs>
</svg>
