<svg width="100%" height="100%" overflow="visible" style="display: block;" viewBox="0 0 11.9906 11.9906" fill="none" xmlns="http://www.w3.org/2000/svg">
<g id="Icon" clip-path="url(#clip0_566_880)">
<path id="Vector" d="M10.8565 8.99298L6.85965 1.99844C6.7725 1.84466 6.64612 1.71675 6.4934 1.62776C6.34068 1.53877 6.16708 1.49189 5.99033 1.49189C5.81357 1.49189 5.63998 1.53877 5.48726 1.62776C5.33454 1.71675 5.20815 1.84466 5.121 1.99844L1.12412 8.99298C1.03603 9.14554 0.989842 9.31868 0.990232 9.49485C0.990622 9.67101 1.03758 9.84395 1.12634 9.99611C1.21511 10.1483 1.34253 10.2743 1.49568 10.3613C1.64884 10.4484 1.82228 10.4934 1.99844 10.4918H9.9922C10.1675 10.4916 10.3397 10.4453 10.4915 10.3576C10.6432 10.2698 10.7692 10.1436 10.8568 9.99176C10.9444 9.83989 10.9904 9.66765 10.9904 9.49234C10.9904 9.31703 10.9442 9.14481 10.8565 8.99298Z" stroke="currentColor" stroke-width="0.999221" stroke-linecap="round" stroke-linejoin="round"/>
<path id="Vector_2" d="M5.99532 4.49649V6.49493" stroke="currentColor" stroke-width="0.999221" stroke-linecap="round" stroke-linejoin="round"/>
<path id="Vector_3" d="M5.99532 8.49337H6.00032" stroke="currentColor" stroke-width="0.999221" stroke-linecap="round" stroke-linejoin="round"/>
</g>
<defs>
<clipPath id="clip0_566_880">
<rect width="11.9906" height="11.9906" fill="white"/>
</clipPath>
</defs>
</svg>
