<svg preserveAspectRatio="none" width="100%" height="100%" overflow="visible" style="display: block;" viewBox="0 0 14.9883 14.9883" fill="none" xmlns="http://www.w3.org/2000/svg">
<g id="Icon" clip-path="url(#clip0_571_3)">
<path id="Vector" d="M12.4903 8.11867C12.4903 11.2412 10.3045 12.8025 7.70649 13.7081C7.57045 13.7542 7.42267 13.752 7.28806 13.7018C4.68385 12.8025 2.49805 11.2412 2.49805 8.11867V3.74708C2.49805 3.58145 2.56385 3.4226 2.68097 3.30548C2.79809 3.18836 2.95693 3.12256 3.12256 3.12256C4.37159 3.12256 5.93287 2.37315 7.01952 1.42389C7.15183 1.31085 7.32014 1.24874 7.49415 1.24874C7.66817 1.24874 7.83648 1.31085 7.96878 1.42389C9.06168 2.37939 10.6167 3.12256 11.8657 3.12256C12.0314 3.12256 12.1902 3.18836 12.3073 3.30548C12.4245 3.4226 12.4903 3.58145 12.4903 3.74708V8.11867Z" stroke="#007167" stroke-width="1.24903" stroke-linecap="round" stroke-linejoin="round"/>
<path id="Vector_2" d="M5.62062 7.49415L6.86964 8.74318L9.36769 6.24513" stroke="#007167" stroke-width="1.24903" stroke-linecap="round" stroke-linejoin="round"/>
</g>
<defs>
<clipPath id="clip0_571_3">
<rect width="14.9883" height="14.9883" fill="white"/>
</clipPath>
</defs>
</svg>
