<svg width="100%" height="100%" overflow="visible" style="display: block;" viewBox="0 0 11.9906 11.9906" fill="none" xmlns="http://www.w3.org/2000/svg">
<g id="Icon" clip-path="url(#clip0_566_885)">
<path id="Vector" d="M6.10524 0.99922H5.88541C5.6204 0.99922 5.36624 1.1045 5.17885 1.29189C4.99146 1.47928 4.88619 1.73343 4.88619 1.99844V2.08837C4.88601 2.2636 4.83975 2.43569 4.75206 2.5874C4.66437 2.73911 4.53833 2.86508 4.38658 2.9527L4.17175 3.0776C4.01985 3.1653 3.84754 3.21147 3.67214 3.21147C3.49674 3.21147 3.32443 3.1653 3.17253 3.0776L3.09758 3.03763C2.86829 2.90536 2.59589 2.86948 2.34018 2.93786C2.08446 3.00624 1.86632 3.17329 1.73365 3.40235L1.62373 3.5922C1.49147 3.82149 1.45559 4.09389 1.52397 4.34961C1.59234 4.60532 1.7594 4.82346 1.98845 4.95613L2.06339 5.0061C2.21441 5.09328 2.33998 5.21847 2.42763 5.36923C2.51528 5.51998 2.56195 5.69105 2.563 5.86542V6.12023C2.5637 6.2963 2.51786 6.46943 2.43013 6.62209C2.34239 6.77475 2.21588 6.90151 2.06339 6.98955L1.98845 7.03451C1.7594 7.16718 1.59234 7.38532 1.52397 7.64104C1.45559 7.89676 1.49147 8.16916 1.62373 8.39845L1.73365 8.5883C1.86632 8.81735 2.08446 8.98441 2.34018 9.05278C2.59589 9.12116 2.86829 9.08528 3.09758 8.95302L3.17253 8.91305C3.32443 8.82535 3.49674 8.77918 3.67214 8.77918C3.84754 8.77918 4.01985 8.82535 4.17175 8.91305L4.38658 9.03795C4.53833 9.12556 4.66437 9.25154 4.75206 9.40325C4.83975 9.55495 4.88601 9.72705 4.88619 9.90228V9.99221C4.88619 10.2572 4.99146 10.5114 5.17885 10.6988C5.36624 10.8862 5.6204 10.9914 5.88541 10.9914H6.10524C6.37025 10.9914 6.6244 10.8862 6.81179 10.6988C6.99918 10.5114 7.10446 10.2572 7.10446 9.99221V9.90228C7.10464 9.72705 7.15089 9.55495 7.23858 9.40325C7.32628 9.25154 7.45232 9.12556 7.60407 9.03795L7.8189 8.91305C7.9708 8.82535 8.14311 8.77918 8.31851 8.77918C8.49391 8.77918 8.66622 8.82535 8.81812 8.91305L8.89306 8.95302C9.12235 9.08528 9.39475 9.12116 9.65047 9.05278C9.90619 8.98441 10.1243 8.81735 10.257 8.5883L10.3669 8.39345C10.4992 8.16416 10.5351 7.89176 10.4667 7.63604C10.3983 7.38033 10.2313 7.16219 10.0022 7.02952L9.92726 6.98955C9.77477 6.90151 9.64825 6.77475 9.56052 6.62209C9.47279 6.46943 9.42695 6.2963 9.42765 6.12023V5.87042C9.42695 5.69435 9.47279 5.52122 9.56052 5.36856C9.64825 5.2159 9.77477 5.08913 9.92726 5.0011L10.0022 4.95613C10.2313 4.82346 10.3983 4.60532 10.4667 4.34961C10.5351 4.09389 10.4992 3.82149 10.3669 3.5922L10.257 3.40235C10.1243 3.17329 9.90619 3.00624 9.65047 2.93786C9.39475 2.86948 9.12235 2.90536 8.89306 3.03763L8.81812 3.0776C8.66622 3.1653 8.49391 3.21147 8.31851 3.21147C8.14311 3.21147 7.9708 3.1653 7.8189 3.0776L7.60407 2.9527C7.45232 2.86508 7.32628 2.73911 7.23858 2.5874C7.15089 2.43569 7.10464 2.2636 7.10446 2.08837V1.99844C7.10446 1.73343 6.99918 1.47928 6.81179 1.29189C6.6244 1.1045 6.37025 0.99922 6.10524 0.99922Z" stroke="#0B9C92" stroke-width="0.999221" stroke-linecap="round" stroke-linejoin="round"/>
<path id="Vector_2" d="M5.99532 7.49415C6.8231 7.49415 7.49415 6.8231 7.49415 5.99532C7.49415 5.16754 6.8231 4.49649 5.99532 4.49649C5.16754 4.49649 4.49649 5.16754 4.49649 5.99532C4.49649 6.8231 5.16754 7.49415 5.99532 7.49415Z" stroke="#0B9C92" stroke-width="0.999221" stroke-linecap="round" stroke-linejoin="round"/>
</g>
<defs>
<clipPath id="clip0_566_885">
<rect width="11.9906" height="11.9906" fill="white"/>
</clipPath>
</defs>
</svg>
