<svg width="24" height="24" viewBox="0 0 23.998 23.998" fill="none" xmlns="http://www.w3.org/2000/svg">
  <g transform="translate(0.955 4.896)">
    <path d="M12.8713 11.3482C13.8866 9.91287 14.4126 8.09453 14.1497 6.16549C13.6973 2.9119 11.0622 0.34135 7.79015 0.0367656C3.34592 -0.415506 -0.415295 3.36878 0.0369745 7.86845C0.336951 11.122 2.89827 13.8079 6.13338 14.2602C8.05321 14.5232 9.85763 13.9971 11.2883 12.9726L16.2956 18.0029C16.5218 18.2291 16.8586 18.2291 17.0847 18.0029L17.8739 17.2092C18.1 16.983 18.1 16.6046 17.9108 16.3784L12.8667 11.3482H12.8713ZM7.11175 12.0311C4.43967 12.0311 2.25679 9.87588 2.25679 7.15311C2.25679 4.43023 4.43967 2.27503 7.11175 2.27503C9.78383 2.27503 11.9667 4.46716 11.9667 7.15311C11.9667 9.83898 9.78383 12.0311 7.11175 12.0311Z" fill="#4E98AA"/>
  </g>
  <g transform="translate(14.333 0.922)">
    <path d="M8.5269 4.05461L6.7638 3.17308C6.2331 2.91 5.8038 2.48077 5.5407 1.95L4.6592 0.186921C4.5346 -0.062307 4.1746 -0.062307 4.05 0.186921L3.1731 1.95C2.91 2.47615 2.4807 2.91 1.95 3.17308L0.1869 4.05461C-0.0623 4.17923 -0.0623 4.53923 0.1869 4.66385L1.9454 5.54538C2.4761 5.80846 2.9054 6.23769 3.1684 6.76846L4.05 8.53154C4.1746 8.78077 4.5346 8.78077 4.6592 8.53154L5.5407 6.76846C5.8038 6.23769 6.2331 5.80846 6.7638 5.54538L8.5269 4.66385C8.7761 4.53923 8.7761 4.17923 8.5269 4.05461Z" fill="#4E98AA"/>
  </g>
</svg>
