<svg width="28" height="28" viewBox="0 0 27.9951 27.9951" fill="none" xmlns="http://www.w3.org/2000/svg">
<g id="Icon">
<path id="Vector" d="M17.4969 2.33293H6.99878C6.38005 2.33293 5.78666 2.57872 5.34915 3.01622C4.91164 3.45373 4.66585 4.04712 4.66585 4.66585V23.3293C4.66585 23.948 4.91164 24.5414 5.34915 24.9789C5.78666 25.4164 6.38005 25.6622 6.99878 25.6622H20.9963C21.6151 25.6622 22.2085 25.4164 22.646 24.9789C23.0835 24.5414 23.3293 23.948 23.3293 23.3293V8.16524L17.4969 2.33293Z" stroke="white" stroke-width="1.74969" stroke-linecap="round" stroke-linejoin="round"/>
<path id="Vector_2" d="M16.3305 2.33293V6.99878C16.3305 7.61751 16.5763 8.2109 17.0138 8.64841C17.4513 9.08591 18.0447 9.3317 18.6634 9.3317H23.3293" stroke="white" stroke-width="1.74969" stroke-linecap="round" stroke-linejoin="round"/>
<path id="Vector_3" d="M11.6646 10.4982H9.3317" stroke="white" stroke-width="1.74969" stroke-linecap="round" stroke-linejoin="round"/>
<path id="Vector_4" d="M18.6634 15.164H9.3317" stroke="white" stroke-width="1.74969" stroke-linecap="round" stroke-linejoin="round"/>
<path id="Vector_5" d="M18.6634 19.8299H9.3317" stroke="white" stroke-width="1.74969" stroke-linecap="round" stroke-linejoin="round"/>
</g>
</svg>
