<svg width="100%" height="100%" overflow="visible" style="display: block;" viewBox="0 0 13.9891 13.9891" fill="none" xmlns="http://www.w3.org/2000/svg">
<g id="Icon" clip-path="url(#clip0_566_873)">
<path id="Vector" d="M1.2019 7.19739C1.15332 7.06652 1.15332 6.92257 1.2019 6.7917C1.67502 5.64451 2.47812 4.66364 3.50938 3.97342C4.54064 3.28321 5.75362 2.91475 6.99454 2.91475C8.23547 2.91475 9.44845 3.28321 10.4797 3.97342C11.511 4.66364 12.3141 5.64451 12.7872 6.7917C12.8358 6.92257 12.8358 7.06652 12.7872 7.19739C12.3141 8.34458 11.511 9.32545 10.4797 10.0157C9.44845 10.7059 8.23547 11.0743 6.99454 11.0743C5.75362 11.0743 4.54064 10.7059 3.50938 10.0157C2.47812 9.32545 1.67502 8.34458 1.2019 7.19739Z" stroke="currentColor" stroke-width="1.16576" stroke-linecap="round" stroke-linejoin="round"/>
<path id="Vector_2" d="M6.99454 8.74318C7.96029 8.74318 8.74318 7.96029 8.74318 6.99454C8.74318 6.0288 7.96029 5.24591 6.99454 5.24591C6.0288 5.24591 5.24591 6.0288 5.24591 6.99454C5.24591 7.96029 6.0288 8.74318 6.99454 8.74318Z" stroke="currentColor" stroke-width="1.16576" stroke-linecap="round" stroke-linejoin="round"/>
</g>
<defs>
<clipPath id="clip0_566_873">
<rect width="13.9891" height="13.9891" fill="white"/>
</clipPath>
</defs>
</svg>
