<svg width="15" height="12" viewBox="0 0 14.745 11.7161" fill="none" xmlns="http://www.w3.org/2000/svg">
  <path fill-rule="evenodd" clip-rule="evenodd" d="M14.3145 4.93552H4.10524C3.82849 4.93552 3.70548 4.59726 3.88999 4.41276L6.84207 1.46067C7.02658 1.27616 7.02658 0.999402 6.84207 0.814902L6.16556 0.138375C5.98105 -0.046125 5.70429 -0.046125 5.51979 0.138375L0.13838 5.55054C-0.0461265 5.73504 -0.0461265 6.01181 0.13838 6.19631L5.51979 11.5777C5.70429 11.7622 5.98105 11.7622 6.16556 11.5777L6.81132 10.9319C6.99583 10.7474 6.99583 10.4707 6.81132 10.2862L3.85924 7.33409C3.67473 7.11884 3.79774 6.78058 4.07449 6.78058H14.2838C14.5298 6.78058 14.745 6.59607 14.745 6.35006V5.42753C14.745 5.18153 14.5606 4.93552 14.3145 4.93552Z" fill="#007167"/>
</svg>
