<svg width="24" height="24" viewBox="0 0 23.9979 23.998" fill="none" xmlns="http://www.w3.org/2000/svg">
  <path fill-rule="evenodd" clip-rule="evenodd" d="M23.1193 16.3827L20.4644 13.7275C20.4644 10.6212 20.0637 8.16632 19.2121 6.41281C18.4106 4.70941 17.1083 3.60721 15.4052 3.0561C15.2549 2.30461 14.9543 1.65331 14.5035 1.1022C13.8523 0.350701 13.0008 0 11.9989 0C10.9972 0 10.1456 0.350701 9.49438 1.1022C9.04355 1.65331 8.74301 2.30461 8.59273 3.0561C6.88963 3.5571 5.63733 4.65931 4.78577 6.41281C3.93422 8.21641 3.58358 10.6212 3.53349 13.7275L0.878643 16.3827C-0.0230036 17.3847 -0.273461 18.6372 0.327636 19.6894C0.878643 20.6913 2.08084 21.1924 3.28304 21.1924H8.09182C8.29218 21.7435 8.59273 22.2946 8.99347 22.7454C9.69474 23.497 10.6966 23.998 11.9989 23.998C13.3013 23.998 14.3032 23.497 15.0045 22.7454C15.4552 22.2946 15.7057 21.7435 15.9061 21.1924H20.7149C21.9671 21.1924 23.1193 20.6913 23.6703 19.6894C24.2713 18.6372 24.021 17.3847 23.1193 16.3827ZM21.8169 18.6372C21.7167 18.7875 21.3661 19.0881 20.6647 19.0881H14.0527L13.9525 20.04C13.9525 20.4909 13.7021 20.992 13.4015 21.3426C13.1009 21.6933 12.6501 21.9439 11.9489 21.9439C11.2476 21.9439 10.7968 21.6933 10.4962 21.3426C10.1957 20.992 9.99529 20.4909 9.9452 20.04L9.84501 19.0881H3.23294C2.53166 19.0881 2.18102 18.7875 2.08084 18.6372C2.08084 18.537 2.03074 18.487 2.08084 18.3366C2.08084 18.2364 2.18102 18.036 2.38139 17.7855L5.28669 14.8296L5.58725 14.529V14.0781C5.58725 10.8216 5.98798 8.66732 6.63917 7.21441C7.29036 5.86171 8.24209 5.16031 9.69474 4.85971L10.4962 4.70941V3.90781C10.6465 3.10621 10.8468 2.6553 11.0973 2.4048C11.2977 2.2044 11.5481 2.05411 11.9989 2.05411C12.4498 2.05411 12.7003 2.2044 12.9006 2.4048C13.101 2.6553 13.3514 3.10621 13.4015 3.90781V4.70941C13.4516 4.70941 14.2531 4.85971 14.2531 4.85971C15.7057 5.16031 16.6574 5.86171 17.3086 7.21441C18.0099 8.66732 18.3606 10.8216 18.3606 14.0781V14.529L18.6611 14.8296L21.5664 17.7855C21.7668 18.036 21.8169 18.1863 21.8669 18.3366V18.6372H21.8169Z" fill="#DBA338"/>
</svg>
