<svg preserveAspectRatio="none" width="100%" height="100%" overflow="visible" style="display: block;" viewBox="0 0 15.999 15.999" fill="none" xmlns="http://www.w3.org/2000/svg">
<g id="Icon" clip-path="url(#clip0_473_4146)">
<path id="Vector" d="M14.8562 0H1.13922C0.510682 0 0 0.517825 0 1.1535V14.8455C0 15.4812 0.510682 15.999 1.13922 15.999H14.8562C15.4848 15.999 15.999 15.4812 15.999 14.8455V1.1535C15.999 0.517825 15.4848 0 14.8562 0ZM4.83541 13.7134H2.46413V6.07819H4.83898V13.7134H4.83541ZM3.64977 5.0354C2.88911 5.0354 2.27486 4.41758 2.27486 3.66048C2.27486 2.90339 2.88911 2.28557 3.64977 2.28557C4.40686 2.28557 5.02469 2.90339 5.02469 3.66048C5.02469 4.42115 4.41044 5.0354 3.64977 5.0354ZM13.7241 13.7134H11.3529V9.99938C11.3529 9.1137 11.335 7.9745 10.1208 7.9745C8.88518 7.9745 8.69586 8.93871 8.69586 9.93511V13.7134H6.32461V6.07819H8.59946V7.12096H8.63159C8.94944 6.52102 9.72439 5.88892 10.8779 5.88892C13.2778 5.88892 13.7241 7.47093 13.7241 9.528V13.7134Z" fill="var(--fill-0, white)"/>
</g>
<defs>
<clipPath id="clip0_473_4146">
<rect width="15.999" height="15.999" fill="white"/>
</clipPath>
</defs>
</svg>
