<svg width="15" height="15" viewBox="0 0 14.8094 14.7604" fill="none" xmlns="http://www.w3.org/2000/svg">
<path id="Vector" fill-rule="evenodd" clip-rule="evenodd" d="M5.53517 10.9164C5.53517 10.6704 5.3199 10.4551 5.0739 10.4551H0.46126C0.215256 10.4551 0 10.6704 0 10.9164V14.2992C0 14.5451 0.215256 14.7604 0.46126 14.7604H5.0739C5.3199 14.7604 5.53517 14.5451 5.53517 14.2992V10.9164ZM1.87596 6.15011H0.369161C0.0616513 6.15011 -0.0921031 6.42689 0.092403 6.58064L2.55247 9.13307C2.67548 9.22533 2.85998 9.22533 2.98299 9.13307L5.44306 6.58064C5.62757 6.39613 5.47381 6.15011 5.16631 6.15011H3.72101C3.72101 4.61251 5.22781 3.0749 6.76535 3.0749V1.22977C3.99777 1.22977 1.87596 3.38242 1.87596 6.15011ZM12.2389 5.62764C12.1159 5.53539 11.9314 5.53539 11.8084 5.62764L9.3483 8.18007C9.1638 8.36459 9.31755 8.6106 9.62508 8.6106H11.1011C11.1011 10.4557 9.84035 11.6859 7.99526 11.6859V13.531C10.7628 13.531 12.9462 11.3783 12.9462 8.6106H14.453C14.7604 8.6106 14.9142 8.33384 14.7297 8.18007L12.2389 5.62764ZM14.7603 0.46128C14.7603 0.215265 14.545 0 14.2991 0H9.68644C9.44049 0 9.22519 0.215265 9.22519 0.46128V3.84402C9.22519 4.09004 9.44049 4.3053 9.68644 4.3053H14.2991C14.545 4.3053 14.7603 4.09004 14.7603 3.84402V0.46128Z" fill="var(--fill-0, #0B9C92)"/>
</svg>
