<svg width="108" height="22" viewBox="0 0 107.996 21.9951" fill="none" xmlns="http://www.w3.org/2000/svg">
<path id="Path 61" d="M92.2493 21.9871V0.00135217H98.607V8.44364H101.596V0.00135217H107.996V21.9871H101.596V13.3404H98.607V21.9871H92.2493ZM47.1506 4.79805L47.1616 0.00135217H60.4612V4.80731L52.5875 17.2861H60.0872L60.0762 21.973H45.6766L45.6446 17.2861L53.5073 4.8L47.1506 4.79805ZM36.672 21.9871V4.81806H33.4721V0.00525589H45.9717V4.81806H42.7719V21.9871H36.672ZM19.8724 21.9871V0.00135217H32.2512L32.2622 4.80487H26.2414L26.2314 8.44364H32.2522V13.3404H26.2314L26.2162 17.308H32.237L32.2522 21.9871H19.8724ZM0 21.9871V0.00135217H6.39995L10.1889 9.21803V0.00135217H16.5886V21.9871H10.1889L6.35795 12.6079L6.40092 21.9871H0ZM81.2607 0.00135217H90.3124V4.81415H84.3756V17.3061H90.3124V21.9851H81.3017C80.8923 22.0007 80.4838 21.9344 80.1003 21.7905C79.7168 21.6466 79.366 21.4278 79.0681 21.1468C78.7702 20.8659 78.5312 20.5286 78.3653 20.1543C78.1994 19.78 78.1097 19.3764 78.1016 18.9671L78.0606 3.02039C78.0721 2.61215 78.1642 2.21026 78.3313 1.83757C78.4984 1.46487 78.7373 1.12877 79.0344 0.848459C79.3316 0.56815 79.6812 0.349025 80.0632 0.203858C80.4452 0.05869 80.8522 -0.0107639 81.2607 0.00135217ZM72.4188 21.988H61.6832V17.2983H69.429V13.3414H65.4292C64.602 13.3494 63.8046 13.0342 63.2067 12.463C62.609 11.8917 62.2582 11.1099 62.2293 10.2837L62.2723 3.02332C62.2932 2.20566 62.6369 1.42947 63.2282 0.864074C63.8197 0.298679 64.6108 -0.0100521 65.4292 0.00525589H74.8178V4.80195H68.4601V8.45095H72.4179C72.825 8.43597 73.2309 8.50249 73.6117 8.64711C73.9926 8.79174 74.3407 9.01129 74.6352 9.2927C74.9296 9.5741 75.1645 9.91192 75.3261 10.2857C75.4876 10.6595 75.5726 11.0618 75.5758 11.4691V18.9739C75.5761 19.3821 75.4935 19.7863 75.3331 20.1616C75.1728 20.537 74.9379 20.876 74.6427 21.1581C74.3475 21.4402 73.9983 21.6593 73.6159 21.8027C73.2334 21.946 72.8259 22.0105 72.4179 21.9919" fill="var(--fill-0, #007167)"/>
</svg>
