<svg preserveAspectRatio="none" width="100%" height="100%" overflow="visible" style="display: block;" viewBox="0 0 14.3945 14.3945" fill="none" xmlns="http://www.w3.org/2000/svg">
<g id="Icon" clip-path="url(#clip0_585_4686)">
<path id="Vector" d="M9.85707 7.55308L7.8201 8.56667C7.20814 8.87168 6.71314 9.36503 6.40716 9.975L5.39016 12.0052C5.24616 12.2952 4.82917 12.2952 4.68517 12.0052L3.66819 9.975C3.36219 9.36503 2.8672 8.87168 2.25521 8.56667L0.218246 7.55308C-0.0727488 7.40952 -0.0727488 6.99393 0.218246 6.85042L2.25521 5.83678C2.8672 5.53182 3.36219 5.03846 3.66819 4.42848L4.68517 2.39826C4.82917 2.10823 5.24616 2.10823 5.39016 2.39826L6.40716 4.42848C6.71314 5.03846 7.20814 5.53182 7.8201 5.83678L9.85707 6.85042C10.1481 6.99393 10.1481 7.40952 9.85707 7.55308ZM14.3 12.068L13.427 11.6314C13.163 11.5029 12.953 11.2876 12.821 11.0275L12.383 10.1574C12.3231 10.0318 12.143 10.0318 12.08 10.1574L11.642 11.0275C11.5131 11.2906 11.2971 11.4999 11.0361 11.6314L10.1631 12.068C10.0371 12.1278 10.0371 12.3072 10.1631 12.37L11.0361 12.8065C11.3001 12.9351 11.5101 13.1504 11.642 13.4105L12.08 14.2806C12.1401 14.4062 12.32 14.4062 12.383 14.2806L12.821 13.4105C12.95 13.1474 13.166 12.9381 13.427 12.8065L14.3 12.37C14.426 12.3102 14.426 12.1308 14.3 12.068ZM14.3 2.0245L13.427 1.58796C13.163 1.45939 12.953 1.24411 12.821 0.983976L12.383 0.113881C12.3231 -0.0117001 12.143 -0.0117001 12.08 0.113881L11.642 0.983976C11.5131 1.2471 11.2971 1.4564 11.0361 1.58796L10.1631 2.0245C10.0371 2.0843 10.0371 2.26371 10.1631 2.3265L11.0361 2.76304C11.3001 2.89161 11.5101 3.10689 11.642 3.36702L12.08 4.23712C12.1401 4.36271 12.32 4.36271 12.383 4.23712L12.821 3.36702C12.95 3.1039 13.166 2.8946 13.427 2.76304L14.3 2.3265C14.426 2.2667 14.426 2.08729 14.3 2.0245Z" fill="var(--fill-0, white)"/>
</g>
<defs>
<clipPath id="clip0_585_4686">
<rect width="14.3945" height="14.3945" fill="white"/>
</clipPath>
</defs>
</svg>
