<svg preserveAspectRatio="none" width="100%" height="100%" overflow="visible" style="display: block;" viewBox="0 0 31.9986 31.9986" fill="none" xmlns="http://www.w3.org/2000/svg">
<g id="AIChatbot" clip-path="url(#clip0_585_4698)">
<path id="Vector" d="M21.912 16.7903L17.3839 19.0435C16.0235 19.7215 14.9231 20.8182 14.2429 22.1742L11.9822 26.6873C11.6621 27.332 10.7351 27.332 10.415 26.6873L8.15428 22.1742C7.47406 20.8182 6.37371 19.7215 5.01327 19.0435L0.485155 16.7903C-0.161719 16.4712 -0.161719 15.5473 0.485155 15.2283L5.01327 12.975C6.37371 12.2971 7.47406 11.2004 8.15428 9.8444L10.415 5.33127C10.7351 4.68653 11.6621 4.68653 11.9822 5.33127L14.2429 9.8444C14.9231 11.2004 16.0235 12.2971 17.3839 12.975L21.912 15.2283C22.5589 15.5473 22.5589 16.4712 21.912 16.7903ZM31.7886 26.8268L29.8479 25.8564C29.2611 25.5706 28.7942 25.092 28.5008 24.5137L27.5271 22.5796C27.3938 22.3004 26.9936 22.3004 26.8536 22.5796L25.8799 24.5137C25.5933 25.0987 25.1131 25.564 24.5329 25.8564L22.5922 26.8268C22.3122 26.9598 22.3122 27.3586 22.5922 27.4981L24.5329 28.4686C25.1198 28.7544 25.5866 29.233 25.8799 29.8112L26.8536 31.7454C26.987 32.0245 27.3871 32.0245 27.5271 31.7454L28.5008 29.8112C28.7876 29.2263 29.2677 28.761 29.8479 28.4686L31.7886 27.4981C32.0687 27.3652 32.0687 26.9664 31.7886 26.8268ZM31.7886 4.50042L29.8479 3.53C29.2611 3.24419 28.7942 2.76562 28.5008 2.18735L27.5271 0.253154C27.3938 -0.0260096 26.9936 -0.0260096 26.8536 0.253154L25.8799 2.18735C25.5933 2.77227 25.1131 3.23754 24.5329 3.53L22.5922 4.50042C22.3122 4.63335 22.3122 5.03216 22.5922 5.17174L24.5329 6.14216C25.1198 6.42798 25.5866 6.90654 25.8799 7.48481L26.8536 9.41901C26.987 9.69818 27.3871 9.69818 27.5271 9.41901L28.5008 7.48481C28.7876 6.89989 29.2677 6.43463 29.8479 6.14216L31.7886 5.17174C32.0687 5.03881 32.0687 4.64 31.7886 4.50042Z" fill="var(--fill-0, white)"/>
</g>
<defs>
<clipPath id="clip0_585_4698">
<rect width="31.9986" height="31.9986" fill="white"/>
</clipPath>
</defs>
</svg>
