<svg width="52" height="60" viewBox="0 0 52 60" fill="none" xmlns="http://www.w3.org/2000/svg">
  <path d="M0.0336708 14.9715L26.0218 0L51.9932 15.0164L51.9539 45.0155L25.9489 59.987L0 44.9481L0.0336708 14.9715Z" fill="#ffffff"/>
  <g transform="translate(1.674, 15.94)" fill="#F49B00">
    <path d="M0 28.0575L12.3965 20.9197L12.4133 7.16585L0.0392847 0L0 28.0575Z"/>
  </g>
  <g transform="translate(1.71, 1.94)" fill="#FFE500">
    <path d="M0 14.0007L12.374 21.1666L24.2934 14.2982L24.3159 0L0 14.0007Z"/>
  </g>
  <g transform="translate(26.01, 1.94)" fill="#009540">
    <path d="M0.022496 0L0 14.2982L11.9139 21.1891L24.3047 14.0568L0.022496 0Z"/>
  </g>
  <g transform="translate(37.91, 15.99)" fill="#0085CC">
    <path d="M12.4076 0L0.0167976 7.13226L0 20.8917L12.374 28.0575L12.4076 0Z"/>
  </g>
  <g transform="translate(25.96, 36.89)" fill="#5E4E9B">
    <path d="M24.3215 7.16595L11.9475 0L0.0223968 6.8685L0 21.1666L24.3215 7.16595Z"/>
  </g>
  <g transform="translate(1.674, 36.86)" fill="#E20613">
    <path d="M24.2822 21.1947L24.3046 6.8966L12.3965 0L0 7.13786L24.2822 21.1947Z"/>
  </g>
  <g transform="translate(15.756, 18.17)" fill="#1D1D1B">
    <path d="M10.2527 0L20.4942 5.92578L10.2415 11.8291L0 5.89769L10.2527 0Z"/>
  </g>
  <g transform="translate(15.746, 24.07)" fill="#CFCFCF">
    <path d="M10.2528 5.93138L10.2359 17.7661L0 11.8459L0.0112985 0L10.2528 5.93138Z"/>
  </g>
</svg>
