<svg preserveAspectRatio="none" width="100%" height="100%" overflow="visible" style="display: block;" viewBox="0 0 16 16" fill="none" xmlns="http://www.w3.org/2000/svg">
<path id="Vector" fill-rule="evenodd" clip-rule="evenodd" d="M8 0C3.58172 0 0 3.58172 0 8C0 12.4183 3.58172 16 8 16C12.4183 16 16 12.4183 16 8C16 3.58172 12.4183 0 8 0ZM13.8667 5.33333H11.4267C11.2133 4.26667 10.88 3.28 10.4533 2.42667C12.0267 3.06667 13.2933 4.06667 13.8667 5.33333ZM8 1.33333C8.64 2.25333 9.16 3.33333 9.48 4.53333H6.52C6.84 3.33333 7.36 2.25333 8 1.33333ZM1.46667 9.33333C1.34667 8.9 1.33333 8.45333 1.33333 8C1.33333 7.54667 1.34667 7.1 1.46667 6.66667H4.2C4.14667 7.11333 4.10667 7.55333 4.10667 8C4.10667 8.44667 4.14667 8.88667 4.2 9.33333H1.46667ZM2.13333 10.6667H4.57333C4.78667 11.7333 5.12 12.72 5.54667 13.5733C3.97333 12.9333 2.70667 11.9333 2.13333 10.6667ZM4.57333 5.33333H2.13333C2.70667 4.06667 3.97333 3.06667 5.54667 2.42667C5.12 3.28 4.78667 4.26667 4.57333 5.33333ZM8 14.6667C7.36 13.7467 6.84 12.6667 6.52 11.4667H9.48C9.16 12.6667 8.64 13.7467 8 14.6667ZM9.8 9.33333H6.2C6.13333 8.88667 6.10667 8.44667 6.10667 8C6.10667 7.55333 6.13333 7.11333 6.2 6.66667H9.8C9.86667 7.11333 9.89333 7.55333 9.89333 8C9.89333 8.44667 9.86667 8.88667 9.8 9.33333ZM10.4533 13.5733C10.88 12.72 11.2133 11.7333 11.4267 10.6667H13.8667C13.2933 11.9333 12.0267 12.9333 10.4533 13.5733ZM11.8 9.33333C11.8533 8.88667 11.8933 8.44667 11.8933 8C11.8933 7.55333 11.8533 7.11333 11.8 6.66667H14.5333C14.6533 7.1 14.6667 7.54667 14.6667 8C14.6667 8.45333 14.6533 8.9 14.5333 9.33333H11.8Z" fill="var(--fill-0, #007167)"/>
</svg>
