<svg width="16" height="16" viewBox="0 0 16 16" fill="none" xmlns="http://www.w3.org/2000/svg">
  <path fill-rule="evenodd" clip-rule="evenodd" d="M8 0C3.58172 0 0 3.58172 0 8C0 12.4183 3.58172 16 8 16C12.4183 16 16 12.4183 16 8C16 3.58172 12.4183 0 8 0ZM6.4 3.6H9.6C11.15 3.6 12.4 4.85 12.4 6.4V9.6C12.4 11.15 11.15 12.4 9.6 12.4H6.4C4.85 12.4 3.6 11.15 3.6 6.4V6.4C3.6 4.85 4.85 3.6 6.4 3.6ZM6.4 4.8C5.51 4.8 4.8 5.51 4.8 6.4V9.6C4.8 10.49 5.51 11.2 6.4 11.2H9.6C10.49 11.2 11.2 10.49 11.2 9.6V6.4C11.2 5.51 10.49 4.8 9.6 4.8H6.4ZM8 6C9.105 6 10 6.895 10 8C10 9.105 9.105 10 8 10C6.895 10 6 9.105 6 8C6 6.895 6.895 6 8 6ZM8 7C7.448 7 7 7.448 7 8C7 8.552 7.448 9 8 9C8.552 9 9 8.552 9 8C9 7.448 8.552 7 8 7ZM10.2 5.4C10.2 5.73137 9.93137 6 9.6 6C9.26863 6 9 5.73137 9 5.4C9 5.06863 9.26863 4.8 9.6 4.8C9.93137 4.8 10.2 5.06863 10.2 5.4Z" fill="#007167"/>
</svg>
