<svg width="16" height="16" viewBox="0 0 16 16" fill="none" xmlns="http://www.w3.org/2000/svg">
  <path fill-rule="evenodd" clip-rule="evenodd" d="M8 0C3.58172 0 0 3.58172 0 8C0 12.4183 3.58172 16 8 16C12.4183 16 16 12.4183 16 8C16 3.58172 12.4183 0 8 0ZM5.5 4.2C5.5 4.86274 4.96274 5.4 4.3 5.4C3.63726 5.4 3.1 4.86274 3.1 4.2C3.1 3.53726 3.63726 3 4.3 3C4.96274 3 5.5 3.53726 5.5 4.2ZM3.3 6.4H5.3V13H3.3V6.4ZM6.7 6.4H8.6V7.3C8.9 6.7 9.7 6.2 10.7 6.2C12.6 6.2 13 7.4 13 9V13H11V9.4C11 8.5 11 7.8 9.9 7.8C8.8 7.8 8.7 8.4 8.7 9.1V13H6.7V6.4Z" fill="#007167"/>
</svg>
