<svg preserveAspectRatio="none" width="100%" height="100%" overflow="visible" style="display: block;" viewBox="0 0 21.996 21.996" fill="none" xmlns="http://www.w3.org/2000/svg">
<g id="SparkleIcon" clip-path="url(#clip0_584_4606)">
<path id="Vector" d="M15.0624 11.5417L11.9498 13.0906C11.0146 13.5567 10.2582 14.3106 9.79067 15.2426L8.23661 18.345C8.01658 18.7882 7.37937 18.7882 7.15933 18.345L5.60529 15.2426C5.13771 14.3106 4.38132 13.5567 3.44615 13.0906L0.333499 11.5417C-0.111166 11.3224 -0.111166 10.6873 0.333499 10.468L3.44615 8.91908C4.38132 8.45308 5.13771 7.69919 5.60529 6.76709L7.15933 3.66474C7.37937 3.22154 8.01658 3.22154 8.23661 3.66474L9.79067 6.76709C10.2582 7.69919 11.0146 8.45308 11.9498 8.91908L15.0624 10.468C15.5071 10.6873 15.5071 11.3224 15.0624 11.5417ZM21.8516 18.4409L20.5176 17.7738C20.1142 17.5773 19.7933 17.2484 19.5916 16.8509L18.9223 15.5213C18.8307 15.3294 18.5556 15.3294 18.4593 15.5213L17.79 16.8509C17.5929 17.253 17.2628 17.5728 16.864 17.7738L15.53 18.4409C15.3375 18.5323 15.3375 18.8064 15.53 18.9024L16.864 19.5695C17.2675 19.7659 17.5883 20.0949 17.79 20.4924L18.4593 21.822C18.551 22.0138 18.826 22.0138 18.9223 21.822L19.5916 20.4924C19.7887 20.0903 20.1188 19.7705 20.5176 19.5695L21.8516 18.9024C22.0442 18.811 22.0442 18.5368 21.8516 18.4409ZM21.8516 3.09361L20.5176 2.42654C20.1142 2.23008 19.7933 1.9011 19.5916 1.5036L18.9223 0.17402C18.8307 -0.0178785 18.5556 -0.0178785 18.4593 0.17402L17.79 1.5036C17.5929 1.90567 17.2628 2.2255 16.864 2.42654L15.53 3.09361C15.3375 3.18499 15.3375 3.45913 15.53 3.55508L16.864 4.22215C17.2675 4.41863 17.5883 4.74759 17.79 5.1451L18.4593 6.47468C18.551 6.66658 18.826 6.66658 18.9223 6.47468L19.5916 5.1451C19.7887 4.74302 20.1188 4.4232 20.5176 4.22215L21.8516 3.55508C22.0442 3.4637 22.0442 3.18956 21.8516 3.09361Z" fill="var(--fill-0, #007167)"/>
</g>
<defs>
<clipPath id="clip0_584_4606">
<rect width="21.996" height="21.996" fill="white"/>
</clipPath>
</defs>
</svg>
