<svg preserveAspectRatio="none" width="100%" height="100%" overflow="visible" style="display: block;" viewBox="0 0 17.9902 17.9902" fill="none" xmlns="http://www.w3.org/2000/svg">
<g id="SparkleIcon" clip-path="url(#clip0_584_4599)">
<path id="Vector" d="M12.3193 9.43981L9.77354 10.7066C9.00871 11.0878 8.39006 11.7044 8.00764 12.4667L6.7366 15.0041C6.55664 15.3665 6.03548 15.3665 5.85551 15.0041L4.58449 12.4667C4.20205 11.7044 3.58342 11.0878 2.81855 10.7066L0.272764 9.43981C-0.0909207 9.26039 -0.0909207 8.74099 0.272764 8.56163L2.81855 7.29478C3.58342 6.91365 4.20205 6.29706 4.58449 5.5347L5.85551 2.99734C6.03548 2.63485 6.55664 2.63485 6.7366 2.99734L8.00764 5.5347C8.39006 6.29706 9.00871 6.91365 9.77354 7.29478L12.3193 8.56163C12.683 8.74099 12.683 9.26039 12.3193 9.43981ZM17.8721 15.0825L16.781 14.5369C16.4511 14.3762 16.1886 14.1072 16.0237 13.7821L15.4763 12.6946C15.4013 12.5377 15.1763 12.5377 15.0976 12.6946L14.5502 13.7821C14.389 14.1109 14.119 14.3725 13.7928 14.5369L12.7018 15.0825C12.5443 15.1573 12.5443 15.3815 12.7018 15.46L13.7928 16.0056C14.1228 16.1663 14.3852 16.4353 14.5502 16.7604L15.0976 17.8479C15.1726 18.0048 15.3975 18.0048 15.4763 17.8479L16.0237 16.7604C16.1849 16.4316 16.4548 16.17 16.781 16.0056L17.8721 15.46C18.0296 15.3852 18.0296 15.161 17.8721 15.0825ZM17.8721 2.53022L16.781 1.98463C16.4511 1.82395 16.1886 1.55488 16.0237 1.22977L15.4763 0.142328C15.4013 -0.0146223 15.1763 -0.0146223 15.0976 0.142328L14.5502 1.22977C14.389 1.55862 14.119 1.82021 13.7928 1.98463L12.7018 2.53022C12.5443 2.60496 12.5443 2.82917 12.7018 2.90765L13.7928 3.45324C14.1228 3.61393 14.3852 3.88298 14.5502 4.2081L15.0976 5.29554C15.1726 5.4525 15.3975 5.4525 15.4763 5.29554L16.0237 4.2081C16.1849 3.87925 16.4548 3.61767 16.781 3.45324L17.8721 2.90765C18.0296 2.83291 18.0296 2.60869 17.8721 2.53022Z" fill="var(--fill-0, #007167)"/>
</g>
<defs>
<clipPath id="clip0_584_4599">
<rect width="17.9902" height="17.9902" fill="white"/>
</clipPath>
</defs>
</svg>
