<svg width="1376" height="96" viewBox="0 0 1376.01 95.9918" preserveAspectRatio="xMidYMid slice" fill="none" xmlns="http://www.w3.org/2000/svg">
<g id="Icon" opacity="0.08" clip-path="url(#clip0_473_9725)">
<path id="Vector" d="M0 9.59918C229.336 -1.49012e-07 458.671 -1.49012e-07 688.007 9.59918C917.342 19.1984 1146.68 19.1984 1376.01 9.59918" stroke="var(--stroke-0, white)" stroke-width="1.16559"/>
<path id="Vector_2" d="M0 21.1182C229.336 11.519 458.671 11.519 688.007 21.1182C917.342 30.7174 1146.68 30.7174 1376.01 21.1182" stroke="var(--stroke-0, white)" stroke-width="1.16559"/>
<path id="Vector_3" d="M0 32.6372C229.336 23.038 458.671 23.038 688.007 32.6372C917.342 42.2364 1146.68 42.2364 1376.01 32.6372" stroke="var(--stroke-0, white)" stroke-width="1.16559"/>
<path id="Vector_4" d="M0 44.1562C229.336 34.557 458.671 34.557 688.007 44.1562C917.342 53.7554 1146.68 53.7554 1376.01 44.1562" stroke="var(--stroke-0, white)" stroke-width="1.16559"/>
<path id="Vector_5" d="M0 55.6752C229.336 46.0761 458.671 46.0761 688.007 55.6752C917.342 65.2744 1146.68 65.2744 1376.01 55.6752" stroke="var(--stroke-0, white)" stroke-width="1.16559"/>
<path id="Vector_6" d="M0 67.1943C229.336 57.5951 458.671 57.5951 688.007 67.1943C917.342 76.7934 1146.68 76.7934 1376.01 67.1943" stroke="var(--stroke-0, white)" stroke-width="1.16559"/>
<path id="Vector_7" d="M0 78.7133C229.336 69.1141 458.671 69.1141 688.007 78.7133C917.342 88.3125 1146.68 88.3125 1376.01 78.7133" stroke="var(--stroke-0, white)" stroke-width="1.16559"/>
<path id="Vector_8" d="M0 90.2323C229.336 80.6331 458.671 80.6331 688.007 90.2323C917.342 99.8315 1146.68 99.8315 1376.01 90.2323" stroke="var(--stroke-0, white)" stroke-width="1.16559"/>
</g>
<defs>
<clipPath id="clip0_473_9725">
<rect width="1376.01" height="95.9918" fill="white"/>
</clipPath>
</defs>
</svg>
